<?xml version="1.0" encoding="UTF-8"?><svg id="Layer_1" xmlns="http://www.w3.org/2000/svg" width="27.12" height="31.39" viewBox="0 0 27.12 31.39"><defs><style>.cls-1,.cls-2{fill:#fff;}.cls-2{font-family:MyriadPro-Regular, 'Myriad Pro';font-size:17px;}</style></defs><path class="cls-1" d="M13.53,29.49c-1.22,1.57-2.85,1.97-4.7,1.89-1.21-.06-2.43-.01-3.71-.01v-2.89c-2.46.13-3.49-1.87-5.06-3.22,1.21-1.05,2.08-2.41,3.62-3.09-.15-.18-.27-.34-.4-.49C-.54,17.15-1.07,10.92,1.94,5.81c.16-.26.22-.6.24-.91.05-.56-.01-1.15.09-1.7C2.51,1.54,3.7.28,5.34.07c1.17-.15,2.39-.02,3.55-.02,0,1.27.12,2.54-.04,3.79-.18,1.53-1.64,2.76-3.19,2.92-.53.05-1.06.07-1.59.04-.46-.02-.68.16-.89.55-3.56,6.71.23,15.13,7.62,16.89,7.39,1.76,14.47-3.83,14.47-11.43,0-1.97-.48-3.83-1.42-5.57-.17-.31-.35-.45-.71-.43-.43.02-.86.01-1.28,0-1.99-.09-3.5-1.42-3.69-3.39-.11-1.1-.02-2.23-.02-3.37,1.2,0,2.36-.1,3.5.02,1.87.21,3.27,1.8,3.25,3.7-.01,1.09.28,2.02.75,3,2.45,5.23,1.88,10.17-1.66,14.74-.16.21-.34.4-.43.51,1.16,1.05,2.31,2.09,3.53,3.2-1.6,1.38-2.63,3.39-5.09,3.27v2.88h-1.28c-1.16,0-2.32.01-3.49,0-1.5-.04-2.7-.69-3.68-1.87ZM12.54,26.4h-2.47c-.24,0-.49.01-.73.05-1.48.2-2.56,1.59-2.34,3.06,1.03,0,2.07.06,3.09-.01,1.54-.12,2.65-1.54,2.45-3.1ZM14.51,26.46c-.1,1.53.84,2.83,2.31,3,1.08.12,2.19.02,3.28.02.13-1.46-.83-2.84-2.21-3-1.1-.12-2.23-.02-3.38-.02ZM7.09,1.87c-2.84-.39-3.35,1.43-2.97,3.04,2.3.28,3.29-.71,2.97-3.04ZM23.03,4.88c.23-2.38-.76-3.33-3.02-2.99-.4,2.23.77,3.41,3.02,2.99ZM7.04,25.24c-1.71-2.19-3.28-1.47-4.27.05,1.59,1.84,2.72,1.84,4.27-.05ZM20.04,25.24c1.58,2.08,3.16,1.63,4.27-.01-1.47-1.86-2.63-1.86-4.27.01Z"/><text class="cls-2" transform="translate(4.91 19.5)"><tspan x="0" y="0">29</tspan></text></svg>