<svg xmlns="http://www.w3.org/2000/svg" xmlns:xlink="http://www.w3.org/1999/xlink" width="40" zoomAndPan="magnify" viewBox="0 0 30 30.000001" height="40" preserveAspectRatio="xMidYMid meet" version="1.0"><defs><clipPath id="7037334220"><path d="M 0.484375 0.589844 L 28.789062 0.589844 L 28.789062 28.171875 L 0.484375 28.171875 Z M 0.484375 0.589844 " clip-rule="nonzero"/></clipPath></defs><g clip-path="url(#7037334220)"><path fill="#ffffff" d="M 12.484375 16.734375 L 18.117188 16.734375 C 18.757812 16.734375 19.28125 16.214844 19.28125 15.570312 L 19.28125 12.304688 C 19.28125 11.660156 18.757812 11.136719 18.117188 11.136719 L 12.484375 11.136719 C 11.839844 11.136719 11.316406 11.660156 11.316406 12.304688 L 11.316406 15.570312 C 11.316406 16.214844 11.839844 16.734375 12.484375 16.734375 Z M 15.675781 16.042969 L 12.515625 16.042969 L 14.085938 14.402344 Z M 18.113281 16.042969 L 16.640625 16.042969 L 15.488281 14.855469 L 17.171875 13.09375 L 18.585938 14.550781 L 18.585938 15.570312 C 18.585938 15.832031 18.375 16.042969 18.113281 16.042969 Z M 12.484375 11.832031 L 18.117188 11.832031 C 18.375 11.832031 18.585938 12.042969 18.585938 12.300781 L 18.585938 13.554688 L 17.421875 12.351562 C 17.355469 12.285156 17.265625 12.25 17.171875 12.25 C 17.078125 12.25 16.988281 12.285156 16.921875 12.355469 L 15.007812 14.355469 L 14.335938 13.664062 C 14.269531 13.597656 14.179688 13.558594 14.085938 13.558594 C 13.992188 13.558594 13.902344 13.597656 13.835938 13.664062 L 12.011719 15.570312 L 12.011719 12.304688 C 12.011719 12.042969 12.222656 11.832031 12.484375 11.832031 Z M 19.945312 23.0625 L 19.945312 21.679688 C 19.945312 20.917969 19.324219 20.296875 18.5625 20.296875 L 14.546875 20.296875 C 14.136719 20.296875 13.765625 20.480469 13.511719 20.765625 C 13.257812 20.480469 12.890625 20.296875 12.476562 20.296875 L 8.464844 20.296875 C 7.703125 20.296875 7.082031 20.917969 7.082031 21.679688 L 7.082031 23.066406 C 6.546875 23.140625 6.128906 23.597656 6.128906 24.15625 L 6.128906 26.734375 C 6.128906 26.925781 6.285156 27.078125 6.476562 27.078125 L 8.382812 27.078125 C 8.574219 27.078125 8.726562 26.925781 8.726562 26.734375 L 8.726562 26.464844 L 18.3125 26.464844 L 18.3125 26.734375 C 18.3125 26.925781 18.46875 27.078125 18.660156 27.078125 L 20.5625 27.078125 C 20.753906 27.078125 20.910156 26.925781 20.910156 26.734375 L 20.910156 24.15625 C 20.910156 23.59375 20.488281 23.128906 19.945312 23.0625 Z M 14.546875 20.992188 L 18.5625 20.992188 C 18.941406 20.992188 19.25 21.300781 19.25 21.679688 L 19.25 23.066406 C 18.871094 23.125 18.554688 23.375 18.402344 23.714844 C 18.144531 23.515625 17.820312 23.398438 17.46875 23.398438 L 13.859375 23.398438 L 13.859375 21.679688 C 13.859375 21.300781 14.167969 20.992188 14.546875 20.992188 Z M 8.460938 20.992188 L 12.476562 20.992188 C 12.855469 20.992188 13.167969 21.300781 13.167969 21.679688 L 13.167969 23.398438 L 9.566406 23.398438 C 9.21875 23.398438 8.894531 23.515625 8.632812 23.714844 C 8.484375 23.371094 8.160156 23.117188 7.773438 23.066406 L 7.773438 21.679688 C 7.773438 21.300781 8.082031 20.992188 8.460938 20.992188 Z M 8.035156 26.386719 L 6.820312 26.386719 L 6.820312 24.15625 C 6.820312 23.929688 7.003906 23.746094 7.230469 23.746094 L 7.625 23.746094 C 7.851562 23.746094 8.035156 23.929688 8.035156 24.15625 Z M 8.726562 25.773438 L 8.726562 24.929688 C 8.726562 24.464844 9.105469 24.089844 9.570312 24.089844 L 17.46875 24.089844 C 17.933594 24.089844 18.3125 24.464844 18.3125 24.929688 L 18.3125 25.773438 Z M 20.21875 26.386719 L 19.003906 26.386719 L 19.003906 24.15625 C 19.003906 23.929688 19.1875 23.746094 19.414062 23.746094 L 19.808594 23.746094 C 20.035156 23.746094 20.21875 23.929688 20.21875 24.15625 Z M 24.121094 19.789062 C 24.21875 19.789062 24.3125 19.746094 24.378906 19.675781 C 24.445312 19.601562 24.476562 19.503906 24.46875 19.40625 L 24.203125 16.878906 C 24.15625 16.417969 23.769531 16.070312 23.304688 16.070312 L 22.417969 16.070312 C 21.957031 16.070312 21.570312 16.417969 21.519531 16.878906 L 21.257812 19.40625 C 21.25 19.503906 21.28125 19.601562 21.347656 19.675781 C 21.410156 19.746094 21.503906 19.789062 21.601562 19.789062 L 22.515625 19.789062 L 22.515625 25.167969 L 22.230469 25.167969 C 21.714844 25.167969 21.292969 25.589844 21.292969 26.105469 L 21.292969 26.695312 C 21.292969 26.886719 21.449219 27.042969 21.636719 27.042969 L 24.085938 27.042969 C 24.277344 27.042969 24.433594 26.886719 24.433594 26.695312 L 24.433594 26.105469 C 24.433594 25.589844 24.011719 25.167969 23.496094 25.167969 L 23.210938 25.167969 L 23.210938 19.789062 Z M 23.742188 26.105469 L 23.742188 26.347656 L 21.984375 26.347656 L 21.984375 26.105469 C 21.984375 25.96875 22.09375 25.859375 22.230469 25.859375 L 23.496094 25.859375 C 23.632812 25.859375 23.742188 25.96875 23.742188 26.105469 Z M 22.210938 16.949219 C 22.222656 16.84375 22.3125 16.761719 22.417969 16.761719 L 23.304688 16.761719 C 23.414062 16.761719 23.503906 16.839844 23.515625 16.949219 L 23.738281 19.097656 L 21.988281 19.097656 Z M 4.839844 13.226562 C 4.648438 13.226562 4.492188 13.070312 4.492188 12.878906 L 4.492188 11.398438 L 3.011719 11.398438 C 2.820312 11.398438 2.664062 11.242188 2.664062 11.050781 C 2.664062 10.859375 2.820312 10.707031 3.011719 10.707031 L 4.492188 10.707031 L 4.492188 9.222656 C 4.492188 9.035156 4.648438 8.878906 4.839844 8.878906 C 5.03125 8.878906 5.183594 9.035156 5.183594 9.222656 L 5.183594 10.707031 L 6.667969 10.707031 C 6.859375 10.707031 7.011719 10.859375 7.011719 11.050781 C 7.011719 11.242188 6.859375 11.398438 6.667969 11.398438 L 5.183594 11.398438 L 5.183594 12.878906 C 5.183594 13.070312 5.03125 13.226562 4.839844 13.226562 Z M 27.628906 8.832031 L 15.691406 0.671875 C 15.578125 0.59375 15.421875 0.59375 15.304688 0.671875 L 5.945312 6.859375 C 5.589844 6.765625 5.222656 6.714844 4.839844 6.714844 C 2.445312 6.714844 0.5 8.660156 0.5 11.050781 C 0.5 13.328125 2.261719 15.195312 4.492188 15.375 L 4.492188 28.097656 C 4.492188 28.289062 4.648438 28.441406 4.839844 28.441406 L 25.757812 28.441406 C 25.949219 28.441406 26.105469 28.289062 26.105469 28.097656 L 26.105469 11.664062 C 26.300781 11.742188 26.507812 11.785156 26.714844 11.785156 C 27.230469 11.785156 27.738281 11.535156 28.050781 11.078125 C 28.554688 10.34375 28.363281 9.335938 27.628906 8.832031 Z M 1.195312 11.050781 C 1.195312 9.042969 2.828125 7.410156 4.839844 7.410156 C 6.847656 7.410156 8.484375 9.042969 8.484375 11.050781 C 8.484375 13.0625 6.847656 14.695312 4.839844 14.695312 C 2.828125 14.695312 1.195312 13.0625 1.195312 11.050781 Z M 5.183594 27.75 L 5.183594 15.375 C 7.414062 15.195312 9.175781 13.328125 9.175781 11.050781 C 9.175781 10.292969 8.976562 9.578125 8.632812 8.957031 L 15.46875 4.4375 L 25.414062 11.234375 L 25.414062 27.75 Z M 27.480469 10.6875 C 27.191406 11.109375 26.613281 11.21875 26.195312 10.929688 L 15.667969 3.734375 C 15.554688 3.65625 15.398438 3.65625 15.28125 3.730469 L 8.25 8.378906 C 7.851562 7.871094 7.335938 7.449219 6.746094 7.160156 L 15.496094 1.375 L 27.238281 9.402344 C 27.65625 9.691406 27.765625 10.269531 27.480469 10.6875 Z M 27.480469 10.6875 " fill-opacity="1" fill-rule="nonzero"/></g></svg>