<svg xmlns="http://www.w3.org/2000/svg" xmlns:xlink="http://www.w3.org/1999/xlink" width="50" zoomAndPan="magnify" viewBox="0 0 37.5 37.499999" height="50" preserveAspectRatio="xMidYMid meet" version="1.0"><defs><clipPath id="16c3028c53"><path d="M 1.628906 2.074219 L 34.933594 2.074219 L 34.933594 35.378906 L 1.628906 35.378906 Z M 1.628906 2.074219 " clip-rule="nonzero"/></clipPath></defs><g clip-path="url(#16c3028c53)"><path fill="#100f0d" d="M 32.160156 34.269531 L 4.402344 34.269531 C 3.484375 34.269531 2.738281 33.519531 2.738281 32.601562 L 2.738281 12.0625 L 33.824219 12.0625 L 33.824219 32.601562 C 33.824219 33.519531 33.078125 34.269531 32.160156 34.269531 Z M 4.402344 5.402344 L 7.734375 5.402344 L 7.734375 7.066406 C 7.734375 7.988281 8.480469 8.734375 9.398438 8.734375 C 10.316406 8.734375 11.066406 7.988281 11.066406 7.066406 L 11.066406 5.402344 L 16.617188 5.402344 L 16.617188 7.066406 C 16.617188 7.988281 17.363281 8.734375 18.28125 8.734375 C 19.199219 8.734375 19.945312 7.988281 19.945312 7.066406 L 19.945312 5.402344 L 25.496094 5.402344 L 25.496094 7.066406 C 25.496094 7.988281 26.246094 8.734375 27.164062 8.734375 C 28.082031 8.734375 28.828125 7.988281 28.828125 7.066406 L 28.828125 5.402344 L 32.160156 5.402344 C 33.078125 5.402344 33.824219 6.148438 33.824219 7.066406 L 33.824219 10.953125 L 2.738281 10.953125 L 2.738281 7.066406 C 2.738281 6.148438 3.484375 5.402344 4.402344 5.402344 Z M 8.84375 3.738281 C 8.84375 3.433594 9.09375 3.183594 9.398438 3.183594 C 9.707031 3.183594 9.953125 3.433594 9.953125 3.738281 L 9.953125 7.066406 C 9.953125 7.375 9.707031 7.625 9.398438 7.625 C 9.09375 7.625 8.84375 7.375 8.84375 7.066406 Z M 17.726562 3.738281 C 17.726562 3.433594 17.976562 3.183594 18.28125 3.183594 C 18.585938 3.183594 18.835938 3.433594 18.835938 3.738281 L 18.835938 7.066406 C 18.835938 7.375 18.585938 7.625 18.28125 7.625 C 17.976562 7.625 17.726562 7.375 17.726562 7.066406 Z M 26.609375 3.738281 C 26.609375 3.433594 26.855469 3.183594 27.164062 3.183594 C 27.46875 3.183594 27.71875 3.433594 27.71875 3.738281 L 27.71875 7.066406 C 27.71875 7.375 27.46875 7.625 27.164062 7.625 C 26.855469 7.625 26.609375 7.375 26.609375 7.066406 Z M 32.160156 4.292969 L 28.828125 4.292969 L 28.828125 3.738281 C 28.828125 2.820312 28.082031 2.074219 27.164062 2.074219 C 26.246094 2.074219 25.496094 2.820312 25.496094 3.738281 L 25.496094 4.292969 L 19.945312 4.292969 L 19.945312 3.738281 C 19.945312 2.820312 19.199219 2.074219 18.28125 2.074219 C 17.363281 2.074219 16.617188 2.820312 16.617188 3.738281 L 16.617188 4.292969 L 11.066406 4.292969 L 11.066406 3.738281 C 11.066406 2.820312 10.316406 2.074219 9.398438 2.074219 C 8.480469 2.074219 7.734375 2.820312 7.734375 3.738281 L 7.734375 4.292969 L 4.402344 4.292969 C 2.875 4.292969 1.628906 5.539062 1.628906 7.066406 L 1.628906 32.601562 C 1.628906 34.132812 2.875 35.378906 4.402344 35.378906 L 32.160156 35.378906 C 33.6875 35.378906 34.933594 34.132812 34.933594 32.601562 L 34.933594 7.066406 C 34.933594 5.539062 33.6875 4.292969 32.160156 4.292969 " fill-opacity="1" fill-rule="nonzero"/></g><path fill="#100f0d" d="M 30.492188 18.171875 L 29.382812 18.171875 L 29.382812 17.058594 L 30.492188 17.058594 Z M 31.046875 15.949219 L 28.828125 15.949219 C 28.523438 15.949219 28.273438 16.199219 28.273438 16.503906 L 28.273438 18.726562 C 28.273438 19.03125 28.523438 19.28125 28.828125 19.28125 L 31.046875 19.28125 C 31.355469 19.28125 31.605469 19.03125 31.605469 18.726562 L 31.605469 16.503906 C 31.605469 16.199219 31.355469 15.949219 31.046875 15.949219 " fill-opacity="1" fill-rule="nonzero"/><path fill="#100f0d" d="M 19.390625 29.273438 L 18.28125 29.273438 L 18.28125 28.160156 L 19.390625 28.160156 Z M 19.945312 27.050781 L 17.726562 27.050781 C 17.417969 27.050781 17.171875 27.300781 17.171875 27.605469 L 17.171875 29.828125 C 17.171875 30.132812 17.417969 30.382812 17.726562 30.382812 L 19.945312 30.382812 C 20.253906 30.382812 20.5 30.132812 20.5 29.828125 L 20.5 27.605469 C 20.5 27.300781 20.253906 27.050781 19.945312 27.050781 " fill-opacity="1" fill-rule="nonzero"/><path fill="#100f0d" d="M 13.839844 18.171875 L 12.730469 18.171875 L 12.730469 17.058594 L 13.839844 17.058594 Z M 14.394531 15.949219 L 12.175781 15.949219 C 11.867188 15.949219 11.621094 16.199219 11.621094 16.503906 L 11.621094 18.726562 C 11.621094 19.03125 11.867188 19.28125 12.175781 19.28125 L 14.394531 19.28125 C 14.703125 19.28125 14.949219 19.03125 14.949219 18.726562 L 14.949219 16.503906 C 14.949219 16.199219 14.703125 15.949219 14.394531 15.949219 " fill-opacity="1" fill-rule="nonzero"/><path fill="#100f0d" d="M 8.289062 23.722656 L 7.179688 23.722656 L 7.179688 22.609375 L 8.289062 22.609375 Z M 8.84375 21.5 L 6.625 21.5 C 6.316406 21.5 6.070312 21.75 6.070312 22.054688 L 6.070312 24.277344 C 6.070312 24.582031 6.316406 24.832031 6.625 24.832031 L 8.84375 24.832031 C 9.152344 24.832031 9.398438 24.582031 9.398438 24.277344 L 9.398438 22.054688 C 9.398438 21.75 9.152344 21.5 8.84375 21.5 " fill-opacity="1" fill-rule="nonzero"/><path fill="#100f0d" d="M 13.839844 23.722656 L 12.730469 23.722656 L 12.730469 22.609375 L 13.839844 22.609375 Z M 14.394531 21.5 L 12.175781 21.5 C 11.867188 21.5 11.621094 21.75 11.621094 22.054688 L 11.621094 24.277344 C 11.621094 24.582031 11.867188 24.832031 12.175781 24.832031 L 14.394531 24.832031 C 14.703125 24.832031 14.949219 24.582031 14.949219 24.277344 L 14.949219 22.054688 C 14.949219 21.75 14.703125 21.5 14.394531 21.5 " fill-opacity="1" fill-rule="nonzero"/><path fill="#100f0d" d="M 8.289062 29.273438 L 7.179688 29.273438 L 7.179688 28.160156 L 8.289062 28.160156 Z M 8.84375 27.050781 L 6.625 27.050781 C 6.316406 27.050781 6.070312 27.300781 6.070312 27.605469 L 6.070312 29.828125 C 6.070312 30.132812 6.316406 30.382812 6.625 30.382812 L 8.84375 30.382812 C 9.152344 30.382812 9.398438 30.132812 9.398438 29.828125 L 9.398438 27.605469 C 9.398438 27.300781 9.152344 27.050781 8.84375 27.050781 " fill-opacity="1" fill-rule="nonzero"/><path fill="#100f0d" d="M 13.839844 29.273438 L 12.730469 29.273438 L 12.730469 28.160156 L 13.839844 28.160156 Z M 14.394531 27.050781 L 12.175781 27.050781 C 11.867188 27.050781 11.621094 27.300781 11.621094 27.605469 L 11.621094 29.828125 C 11.621094 30.132812 11.867188 30.382812 12.175781 30.382812 L 14.394531 30.382812 C 14.703125 30.382812 14.949219 30.132812 14.949219 29.828125 L 14.949219 27.605469 C 14.949219 27.300781 14.703125 27.050781 14.394531 27.050781 " fill-opacity="1" fill-rule="nonzero"/><path fill="#100f0d" d="M 23.433594 20.675781 C 23.3125 20.800781 23.257812 20.980469 23.285156 21.152344 L 23.625 23.238281 L 21.878906 22.273438 C 21.796875 22.226562 21.703125 22.203125 21.613281 22.203125 C 21.519531 22.203125 21.425781 22.226562 21.34375 22.273438 L 19.597656 23.238281 L 19.9375 21.152344 C 19.96875 20.980469 19.910156 20.800781 19.789062 20.675781 L 18.324219 19.171875 L 20.324219 18.867188 C 20.507812 18.839844 20.664062 18.722656 20.742188 18.554688 L 21.613281 16.699219 L 22.480469 18.554688 C 22.558594 18.722656 22.71875 18.839844 22.898438 18.867188 L 24.902344 19.171875 Z M 26.136719 18.238281 L 23.359375 17.8125 L 22.113281 15.160156 C 22.023438 14.964844 21.828125 14.839844 21.613281 14.839844 C 21.398438 14.839844 21.199219 14.964844 21.109375 15.160156 L 19.863281 17.8125 L 17.085938 18.238281 C 16.882812 18.269531 16.710938 18.414062 16.644531 18.609375 C 16.578125 18.808594 16.628906 19.027344 16.773438 19.175781 L 18.796875 21.25 L 18.320312 24.1875 C 18.285156 24.398438 18.375 24.609375 18.546875 24.730469 C 18.722656 24.851562 18.949219 24.863281 19.136719 24.761719 L 21.613281 23.394531 L 24.085938 24.761719 C 24.171875 24.808594 24.265625 24.832031 24.355469 24.832031 C 24.46875 24.832031 24.582031 24.796875 24.675781 24.730469 C 24.851562 24.609375 24.9375 24.398438 24.902344 24.1875 L 24.425781 21.25 L 26.449219 19.175781 C 26.59375 19.027344 26.644531 18.808594 26.578125 18.609375 C 26.511719 18.414062 26.34375 18.269531 26.136719 18.238281 " fill-opacity="1" fill-rule="nonzero"/><path fill="#100f0d" d="M 30.492188 23.722656 L 29.382812 23.722656 L 29.382812 22.609375 L 30.492188 22.609375 Z M 31.046875 21.5 L 28.828125 21.5 C 28.523438 21.5 28.273438 21.75 28.273438 22.054688 L 28.273438 24.277344 C 28.273438 24.582031 28.523438 24.832031 28.828125 24.832031 L 31.046875 24.832031 C 31.355469 24.832031 31.605469 24.582031 31.605469 24.277344 L 31.605469 22.054688 C 31.605469 21.75 31.355469 21.5 31.046875 21.5 " fill-opacity="1" fill-rule="nonzero"/><path fill="#100f0d" d="M 30.492188 29.273438 L 29.382812 29.273438 L 29.382812 28.160156 L 30.492188 28.160156 Z M 31.046875 27.050781 L 28.828125 27.050781 C 28.523438 27.050781 28.273438 27.300781 28.273438 27.605469 L 28.273438 29.828125 C 28.273438 30.132812 28.523438 30.382812 28.828125 30.382812 L 31.046875 30.382812 C 31.355469 30.382812 31.605469 30.132812 31.605469 29.828125 L 31.605469 27.605469 C 31.605469 27.300781 31.355469 27.050781 31.046875 27.050781 " fill-opacity="1" fill-rule="nonzero"/><path fill="#100f0d" d="M 24.941406 29.273438 L 23.832031 29.273438 L 23.832031 28.160156 L 24.941406 28.160156 Z M 25.496094 27.050781 L 23.277344 27.050781 C 22.96875 27.050781 22.722656 27.300781 22.722656 27.605469 L 22.722656 29.828125 C 22.722656 30.132812 22.96875 30.382812 23.277344 30.382812 L 25.496094 30.382812 C 25.804688 30.382812 26.050781 30.132812 26.050781 29.828125 L 26.050781 27.605469 C 26.050781 27.300781 25.804688 27.050781 25.496094 27.050781 " fill-opacity="1" fill-rule="nonzero"/></svg>