<svg xmlns="http://www.w3.org/2000/svg" xmlns:xlink="http://www.w3.org/1999/xlink" width="50" zoomAndPan="magnify" viewBox="0 0 37.5 37.499999" height="50" preserveAspectRatio="xMidYMid meet" version="1.0"><defs><clipPath id="90e2742073"><path d="M 21 0.777344 L 28 0.777344 L 28 7 L 21 7 Z M 21 0.777344 " clip-rule="nonzero"/></clipPath><clipPath id="7ec13dfba1"><path d="M 1.066406 0.777344 L 23 0.777344 L 23 25 L 1.066406 25 Z M 1.066406 0.777344 " clip-rule="nonzero"/></clipPath><clipPath id="1abb763e3b"><path d="M 1.066406 22 L 28 22 L 28 36.304688 L 1.066406 36.304688 Z M 1.066406 22 " clip-rule="nonzero"/></clipPath><clipPath id="2396da4ab1"><path d="M 31 5 L 35.851562 5 L 35.851562 11 L 31 11 Z M 31 5 " clip-rule="nonzero"/></clipPath></defs><path fill="#000000" d="M 26.730469 24.207031 C 26.4375 24.207031 26.199219 23.96875 26.199219 23.671875 L 26.199219 16.617188 C 26.199219 16.324219 26.4375 16.082031 26.730469 16.082031 C 27.027344 16.082031 27.265625 16.324219 27.265625 16.617188 L 27.265625 23.671875 C 27.265625 23.96875 27.027344 24.207031 26.730469 24.207031 Z M 26.730469 24.207031 " fill-opacity="1" fill-rule="evenodd"/><path fill="#000000" d="M 26.730469 12.257812 C 26.4375 12.257812 26.199219 12.015625 26.199219 11.722656 L 26.199219 5.738281 C 26.199219 5.441406 26.4375 5.203125 26.730469 5.203125 C 27.027344 5.203125 27.265625 5.441406 27.265625 5.738281 L 27.265625 11.722656 C 27.265625 12.015625 27.027344 12.257812 26.730469 12.257812 Z M 26.730469 12.257812 " fill-opacity="1" fill-rule="evenodd"/><g clip-path="url(#90e2742073)"><path fill="#000000" d="M 22.96875 5.195312 L 25.449219 5.195312 L 22.96875 2.664062 Z M 26.730469 6.273438 L 22.4375 6.273438 C 22.144531 6.273438 21.90625 6.035156 21.90625 5.738281 L 21.90625 1.351562 C 21.90625 1.136719 22.039062 0.9375 22.238281 0.855469 C 22.4375 0.777344 22.667969 0.824219 22.828125 0.976562 L 27.121094 5.363281 C 27.273438 5.515625 27.320312 5.746094 27.234375 5.945312 C 27.136719 6.136719 26.945312 6.273438 26.730469 6.273438 Z M 26.730469 6.273438 " fill-opacity="1" fill-rule="evenodd"/></g><g clip-path="url(#7ec13dfba1)"><path fill="#000000" d="M 1.609375 24.207031 C 1.316406 24.207031 1.078125 23.96875 1.078125 23.671875 L 1.078125 1.351562 C 1.078125 1.058594 1.316406 0.816406 1.609375 0.816406 L 22.429688 0.816406 C 22.722656 0.816406 22.960938 1.058594 22.960938 1.351562 C 22.960938 1.648438 22.722656 1.886719 22.429688 1.886719 L 2.144531 1.886719 L 2.144531 23.671875 C 2.144531 23.96875 1.90625 24.207031 1.609375 24.207031 Z M 1.609375 24.207031 " fill-opacity="1" fill-rule="evenodd"/></g><g clip-path="url(#1abb763e3b)"><path fill="#000000" d="M 26.738281 36.304688 L 1.601562 36.304688 C 1.308594 36.304688 1.070312 36.0625 1.070312 35.769531 L 1.070312 23.464844 C 1.070312 23.167969 1.308594 22.929688 1.601562 22.929688 L 1.609375 22.929688 C 1.90625 22.929688 2.144531 23.167969 2.144531 23.464844 C 2.144531 23.496094 2.144531 23.527344 2.136719 23.554688 L 2.136719 35.226562 L 26.199219 35.226562 L 26.199219 23.554688 C 26.191406 23.523438 26.191406 23.496094 26.191406 23.464844 C 26.191406 23.167969 26.429688 22.929688 26.722656 22.929688 L 26.730469 22.929688 C 27.023438 22.929688 27.261719 23.167969 27.261719 23.464844 L 27.261719 35.769531 C 27.273438 36.054688 27.035156 36.304688 26.738281 36.304688 Z M 26.738281 36.304688 " fill-opacity="1" fill-rule="evenodd"/></g><path fill="#000000" d="M 23.328125 8.796875 L 12.496094 8.796875 C 12.203125 8.796875 11.964844 8.558594 11.964844 8.261719 C 11.964844 7.96875 12.203125 7.726562 12.496094 7.726562 L 23.328125 7.726562 C 23.621094 7.726562 23.859375 7.96875 23.859375 8.261719 C 23.859375 8.558594 23.621094 8.796875 23.328125 8.796875 Z M 23.328125 8.796875 " fill-opacity="1" fill-rule="evenodd"/><path fill="#000000" d="M 5.164062 9.605469 L 7.835938 9.605469 L 7.835938 6.914062 L 5.164062 6.914062 Z M 8.371094 10.683594 L 4.625 10.683594 C 4.332031 10.683594 4.09375 10.441406 4.09375 10.148438 L 4.09375 6.375 C 4.09375 6.082031 4.332031 5.84375 4.625 5.84375 L 8.371094 5.84375 C 8.664062 5.84375 8.902344 6.082031 8.902344 6.375 L 8.902344 10.148438 C 8.910156 10.441406 8.671875 10.683594 8.371094 10.683594 Z M 8.371094 10.683594 " fill-opacity="1" fill-rule="evenodd"/><path fill="#000000" d="M 22.007812 16.410156 L 12.496094 16.410156 C 12.203125 16.410156 11.964844 16.171875 11.964844 15.875 C 11.964844 15.582031 12.203125 15.339844 12.496094 15.339844 L 22.007812 15.339844 C 22.300781 15.339844 22.539062 15.582031 22.539062 15.875 C 22.539062 16.171875 22.300781 16.410156 22.007812 16.410156 Z M 22.007812 16.410156 " fill-opacity="1" fill-rule="evenodd"/><path fill="#000000" d="M 5.164062 17.226562 L 7.835938 17.226562 L 7.835938 14.535156 L 5.164062 14.535156 Z M 8.371094 18.296875 L 4.625 18.296875 C 4.332031 18.296875 4.09375 18.058594 4.09375 17.761719 L 4.09375 13.992188 C 4.09375 13.695312 4.332031 13.457031 4.625 13.457031 L 8.371094 13.457031 C 8.664062 13.457031 8.902344 13.695312 8.902344 13.992188 L 8.902344 17.761719 C 8.910156 18.058594 8.671875 18.296875 8.371094 18.296875 Z M 8.371094 18.296875 " fill-opacity="1" fill-rule="evenodd"/><path fill="#000000" d="M 23.328125 24.03125 L 12.496094 24.03125 C 12.203125 24.03125 11.964844 23.792969 11.964844 23.496094 C 11.964844 23.203125 12.203125 22.960938 12.496094 22.960938 L 23.328125 22.960938 C 23.621094 22.960938 23.859375 23.203125 23.859375 23.496094 C 23.859375 23.792969 23.621094 24.03125 23.328125 24.03125 Z M 23.328125 24.03125 " fill-opacity="1" fill-rule="evenodd"/><path fill="#000000" d="M 5.164062 24.839844 L 7.835938 24.839844 L 7.835938 22.148438 L 5.164062 22.148438 Z M 8.371094 25.917969 L 4.625 25.917969 C 4.332031 25.917969 4.09375 25.679688 4.09375 25.382812 L 4.09375 21.613281 C 4.09375 21.316406 4.332031 21.078125 4.625 21.078125 L 8.371094 21.078125 C 8.664062 21.078125 8.902344 21.316406 8.902344 21.613281 L 8.902344 25.382812 C 8.910156 25.679688 8.671875 25.917969 8.371094 25.917969 Z M 8.371094 25.917969 " fill-opacity="1" fill-rule="evenodd"/><path fill="#000000" d="M 23.328125 31.644531 L 12.496094 31.644531 C 12.203125 31.644531 11.964844 31.40625 11.964844 31.109375 C 11.964844 30.816406 12.203125 30.578125 12.496094 30.578125 L 23.328125 30.578125 C 23.621094 30.578125 23.859375 30.816406 23.859375 31.109375 C 23.859375 31.40625 23.621094 31.644531 23.328125 31.644531 Z M 23.328125 31.644531 " fill-opacity="1" fill-rule="evenodd"/><path fill="#000000" d="M 5.164062 32.460938 L 7.835938 32.460938 L 7.835938 29.761719 L 5.164062 29.761719 Z M 8.371094 33.53125 L 4.625 33.53125 C 4.332031 33.53125 4.09375 33.292969 4.09375 32.996094 L 4.09375 29.226562 C 4.09375 28.929688 4.332031 28.691406 4.625 28.691406 L 8.371094 28.691406 C 8.664062 28.691406 8.902344 28.929688 8.902344 29.226562 L 8.902344 32.996094 C 8.910156 33.292969 8.671875 33.53125 8.371094 33.53125 Z M 8.371094 33.53125 " fill-opacity="1" fill-rule="evenodd"/><path fill="#000000" d="M 8.378906 10.683594 C 8.234375 10.683594 8.097656 10.628906 7.996094 10.523438 L 6.121094 8.636719 C 5.914062 8.429688 5.914062 8.085938 6.121094 7.878906 C 6.328125 7.671875 6.667969 7.671875 6.875 7.878906 L 8.308594 9.316406 L 10.722656 5.898438 C 10.898438 5.660156 11.234375 5.59375 11.472656 5.769531 C 11.710938 5.9375 11.773438 6.273438 11.597656 6.519531 L 8.816406 10.46875 C 8.726562 10.59375 8.578125 10.675781 8.425781 10.691406 C 8.410156 10.683594 8.394531 10.683594 8.378906 10.683594 Z M 8.378906 10.683594 " fill-opacity="1" fill-rule="evenodd"/><path fill="#000000" d="M 22.023438 21.292969 C 22.015625 21.292969 22 21.292969 21.992188 21.292969 C 21.851562 21.285156 21.722656 21.21875 21.628906 21.109375 L 19.21875 18.335938 C 19.019531 18.113281 19.042969 17.777344 19.265625 17.578125 L 28.730469 9.246094 L 29.078125 8.933594 C 29.300781 8.742188 29.644531 8.765625 29.835938 8.980469 C 30.023438 9.203125 30.007812 9.546875 29.785156 9.738281 L 29.4375 10.042969 L 20.371094 18.023438 L 22.078125 19.980469 L 31.152344 12 L 31.503906 11.699219 C 31.722656 11.507812 32.066406 11.523438 32.257812 11.746094 C 32.449219 11.96875 32.433594 12.3125 32.210938 12.503906 L 31.84375 12.824219 L 22.375 21.15625 C 22.277344 21.246094 22.152344 21.292969 22.023438 21.292969 Z M 22.023438 21.292969 " fill-opacity="1" fill-rule="evenodd"/><path fill="#000000" d="M 19.703125 18.910156 L 18.039062 21.820312 L 21.125 20.550781 Z M 16.800781 23.449219 C 16.648438 23.449219 16.496094 23.386719 16.394531 23.265625 C 16.242188 23.089844 16.21875 22.84375 16.332031 22.644531 L 19.136719 17.722656 C 19.226562 17.570312 19.375 17.472656 19.550781 17.457031 C 19.726562 17.441406 19.894531 17.503906 20.003906 17.640625 L 22.414062 20.414062 C 22.527344 20.542969 22.574219 20.726562 22.535156 20.894531 C 22.492188 21.0625 22.375 21.203125 22.214844 21.269531 L 17 23.425781 C 16.941406 23.433594 16.871094 23.449219 16.800781 23.449219 Z M 16.800781 23.449219 " fill-opacity="1" fill-rule="evenodd"/><path fill="#000000" d="M 32.65625 11.402344 Z M 31.488281 12.96875 C 31.335938 12.96875 31.191406 12.90625 31.082031 12.785156 L 28.671875 10.011719 C 28.578125 9.910156 28.527344 9.765625 28.546875 9.621094 C 28.554688 9.476562 28.617188 9.347656 28.726562 9.253906 L 29.898438 8.230469 C 30.46875 7.71875 31.28125 7.542969 32.011719 7.765625 C 32.292969 7.855469 32.449219 8.152344 32.371094 8.4375 C 32.28125 8.726562 31.980469 8.878906 31.703125 8.796875 C 31.328125 8.675781 30.90625 8.773438 30.605469 9.035156 L 29.832031 9.707031 L 31.542969 11.671875 L 32.34375 10.960938 C 32.617188 10.695312 32.742188 10.3125 32.6875 9.9375 C 32.640625 9.644531 32.84375 9.371094 33.140625 9.324219 C 33.433594 9.273438 33.707031 9.480469 33.753906 9.777344 C 33.855469 10.488281 33.617188 11.214844 33.109375 11.726562 L 33.035156 11.785156 C 33.027344 11.792969 33.019531 11.800781 33.011719 11.808594 L 31.84375 12.832031 C 31.742188 12.917969 31.613281 12.96875 31.488281 12.96875 Z M 31.488281 12.96875 " fill-opacity="1" fill-rule="evenodd"/><path fill="#000000" d="M 30.085938 16.5 C 29.9375 16.5 29.792969 16.433594 29.683594 16.316406 C 29.484375 16.09375 29.507812 15.757812 29.730469 15.554688 L 33.101562 12.59375 L 32.316406 11.699219 C 32.117188 11.472656 32.140625 11.136719 32.363281 10.9375 C 32.585938 10.738281 32.917969 10.761719 33.117188 10.984375 L 34.257812 12.289062 C 34.351562 12.390625 34.398438 12.535156 34.390625 12.679688 C 34.382812 12.824219 34.320312 12.953125 34.207031 13.046875 L 30.429688 16.371094 C 30.34375 16.453125 30.214844 16.5 30.085938 16.5 Z M 30.085938 16.5 " fill-opacity="1" fill-rule="evenodd"/><g clip-path="url(#2396da4ab1)"><path fill="#000000" d="M 33.230469 8.628906 C 33.316406 8.726562 33.386719 8.828125 33.449219 8.933594 L 34.492188 8.015625 L 33.824219 7.246094 L 32.78125 8.164062 C 32.878906 8.246094 32.964844 8.332031 33.046875 8.421875 C 33.046875 8.421875 33.046875 8.421875 33.054688 8.429688 Z M 33.21875 10.386719 C 33.15625 10.386719 33.09375 10.378906 33.039062 10.355469 C 32.855469 10.285156 32.71875 10.125 32.695312 9.925781 C 32.664062 9.707031 32.570312 9.507812 32.425781 9.332031 C 32.425781 9.332031 32.425781 9.324219 32.417969 9.324219 L 32.25 9.125 C 32.105469 8.964844 31.917969 8.835938 31.71875 8.78125 C 31.527344 8.726562 31.382812 8.574219 31.34375 8.382812 C 31.304688 8.191406 31.367188 7.992188 31.511719 7.863281 L 33.53125 6.082031 C 33.632812 5.984375 33.777344 5.9375 33.921875 5.945312 C 34.0625 5.953125 34.199219 6.015625 34.285156 6.128906 L 35.652344 7.710938 C 35.84375 7.933594 35.828125 8.269531 35.605469 8.46875 L 33.578125 10.25 C 33.476562 10.339844 33.347656 10.386719 33.21875 10.386719 Z M 33.21875 10.386719 " fill-opacity="1" fill-rule="evenodd"/></g></svg>