<svg xmlns="http://www.w3.org/2000/svg" xmlns:xlink="http://www.w3.org/1999/xlink" width="40" zoomAndPan="magnify" viewBox="0 0 30 30.000001" height="40" preserveAspectRatio="xMidYMid meet" version="1.0"><defs><clipPath id="f1653b70e1"><path d="M 1.210938 0.726562 L 28.789062 0.726562 L 28.789062 28.304688 L 1.210938 28.304688 Z M 1.210938 0.726562 " clip-rule="nonzero"/></clipPath></defs><path fill="#ffffff" d="M 8.148438 8.164062 L 4.929688 8.164062 C 4.679688 8.164062 4.511719 8.332031 4.511719 8.582031 L 4.511719 11.882812 C 4.511719 12.132812 4.679688 12.300781 4.929688 12.300781 L 8.148438 12.300781 C 8.398438 12.300781 8.566406 12.132812 8.566406 11.882812 L 8.566406 8.582031 C 8.566406 8.332031 8.398438 8.164062 8.148438 8.164062 Z M 7.730469 11.421875 L 5.347656 11.421875 L 5.347656 8.957031 L 7.730469 8.957031 Z M 7.730469 11.421875 " fill-opacity="1" fill-rule="nonzero"/><path fill="#ffffff" d="M 14.121094 8.164062 L 10.90625 8.164062 C 10.652344 8.164062 10.488281 8.332031 10.488281 8.582031 L 10.488281 11.882812 C 10.488281 12.132812 10.652344 12.300781 10.90625 12.300781 L 14.121094 12.300781 C 14.375 12.300781 14.539062 12.132812 14.539062 11.882812 L 14.539062 8.582031 C 14.539062 8.332031 14.375 8.164062 14.121094 8.164062 Z M 13.703125 11.421875 L 11.324219 11.421875 L 11.324219 8.957031 L 13.703125 8.957031 Z M 13.703125 11.421875 " fill-opacity="1" fill-rule="nonzero"/><path fill="#ffffff" d="M 14.121094 13.511719 L 10.90625 13.511719 C 10.652344 13.511719 10.488281 13.679688 10.488281 13.929688 L 10.488281 17.230469 C 10.488281 17.484375 10.652344 17.648438 10.90625 17.648438 L 14.121094 17.648438 C 14.375 17.648438 14.539062 17.484375 14.539062 17.230469 L 14.539062 13.929688 C 14.539062 13.722656 14.375 13.511719 14.121094 13.511719 Z M 13.703125 16.816406 L 11.324219 16.816406 L 11.324219 14.347656 L 13.703125 14.347656 Z M 13.703125 16.816406 " fill-opacity="1" fill-rule="nonzero"/><path fill="#ffffff" d="M 14.121094 18.863281 L 10.90625 18.863281 C 10.652344 18.863281 10.488281 19.03125 10.488281 19.28125 L 10.488281 22.582031 C 10.488281 22.832031 10.652344 23 10.90625 23 L 14.121094 23 C 14.375 23 14.539062 22.832031 14.539062 22.582031 L 14.539062 19.28125 C 14.539062 19.070312 14.375 18.863281 14.121094 18.863281 Z M 13.703125 22.164062 L 11.324219 22.164062 L 11.324219 19.699219 L 13.703125 19.699219 Z M 13.703125 22.164062 " fill-opacity="1" fill-rule="nonzero"/><path fill="#ffffff" d="M 8.148438 13.511719 L 4.929688 13.511719 C 4.679688 13.511719 4.511719 13.679688 4.511719 13.929688 L 4.511719 17.230469 C 4.511719 17.484375 4.679688 17.648438 4.929688 17.648438 L 8.148438 17.648438 C 8.398438 17.648438 8.566406 17.484375 8.566406 17.230469 L 8.566406 13.929688 C 8.566406 13.722656 8.398438 13.511719 8.148438 13.511719 Z M 7.730469 16.816406 L 5.347656 16.816406 L 5.347656 14.347656 L 7.730469 14.347656 Z M 7.730469 16.816406 " fill-opacity="1" fill-rule="nonzero"/><path fill="#ffffff" d="M 8.148438 18.863281 L 4.929688 18.863281 C 4.679688 18.863281 4.511719 19.03125 4.511719 19.28125 L 4.511719 22.582031 C 4.511719 22.832031 4.679688 23 4.929688 23 L 8.148438 23 C 8.398438 23 8.566406 22.832031 8.566406 22.582031 L 8.566406 19.28125 C 8.566406 19.070312 8.398438 18.863281 8.148438 18.863281 Z M 7.730469 22.164062 L 5.347656 22.164062 L 5.347656 19.699219 L 7.730469 19.699219 Z M 7.730469 22.164062 " fill-opacity="1" fill-rule="nonzero"/><path fill="#ffffff" d="M 18.761719 16.941406 L 21.476562 16.941406 C 21.726562 16.941406 21.894531 16.773438 21.894531 16.523438 L 21.894531 13.804688 C 21.894531 13.554688 21.726562 13.386719 21.476562 13.386719 L 18.761719 13.386719 C 18.511719 13.386719 18.34375 13.554688 18.34375 13.804688 L 18.34375 16.523438 C 18.34375 16.730469 18.511719 16.941406 18.761719 16.941406 Z M 19.179688 14.222656 L 21.058594 14.222656 L 21.058594 16.105469 L 19.179688 16.105469 Z M 19.179688 14.222656 " fill-opacity="1" fill-rule="nonzero"/><path fill="#ffffff" d="M 23.148438 16.941406 L 25.863281 16.941406 C 26.117188 16.941406 26.28125 16.773438 26.28125 16.523438 L 26.28125 13.804688 C 26.28125 13.554688 26.117188 13.386719 25.863281 13.386719 L 23.148438 13.386719 C 22.898438 13.386719 22.730469 13.554688 22.730469 13.804688 L 22.730469 16.523438 C 22.730469 16.730469 22.898438 16.941406 23.148438 16.941406 Z M 23.566406 14.222656 L 25.445312 14.222656 L 25.445312 16.105469 L 23.566406 16.105469 Z M 23.566406 14.222656 " fill-opacity="1" fill-rule="nonzero"/><g clip-path="url(#f1653b70e1)"><path fill="#ffffff" d="M 28.371094 25.214844 L 28.164062 25.214844 L 28.164062 11.382812 C 28.164062 11.132812 27.996094 10.964844 27.746094 10.964844 L 17.171875 10.964844 L 17.171875 5.488281 C 17.171875 5.238281 17.007812 5.070312 16.753906 5.070312 L 15.667969 5.070312 L 15.667969 3.191406 C 15.667969 2.941406 15.5 2.773438 15.25 2.773438 L 11.992188 2.773438 L 11.238281 0.976562 C 11.195312 0.808594 11.070312 0.726562 10.90625 0.726562 L 7.855469 0.726562 C 7.6875 0.726562 7.519531 0.808594 7.476562 0.976562 L 6.726562 2.773438 L 3.800781 2.773438 C 3.550781 2.773438 3.382812 2.941406 3.382812 3.191406 L 3.382812 5.070312 L 2.253906 5.070312 C 2.003906 5.070312 1.835938 5.238281 1.835938 5.488281 L 1.835938 25.214844 L 1.628906 25.214844 C 1.375 25.214844 1.210938 25.382812 1.210938 25.632812 L 1.210938 27.886719 C 1.210938 28.140625 1.375 28.304688 1.628906 28.304688 L 28.371094 28.304688 C 28.625 28.304688 28.789062 28.140625 28.789062 27.886719 L 28.789062 25.632812 C 28.789062 25.421875 28.625 25.214844 28.371094 25.214844 Z M 27.328125 11.800781 L 27.328125 25.257812 L 24.945312 25.257812 L 24.945312 18.234375 C 24.945312 17.984375 24.777344 17.816406 24.527344 17.816406 L 20.015625 17.816406 C 19.765625 17.816406 19.597656 17.984375 19.597656 18.234375 L 19.597656 25.214844 L 17.214844 25.214844 L 17.214844 11.800781 Z M 20.433594 25.214844 L 20.433594 18.652344 L 24.066406 18.652344 L 24.066406 25.214844 Z M 8.105469 1.5625 L 10.613281 1.5625 L 11.113281 2.773438 L 7.5625 2.773438 Z M 4.175781 3.609375 C 5.386719 3.609375 13.621094 3.609375 14.875 3.609375 L 14.875 5.070312 L 4.175781 5.070312 Z M 2.671875 5.90625 C 3.089844 5.90625 16.335938 5.90625 16.335938 5.90625 C 16.335938 10.085938 16.335938 20.953125 16.335938 25.214844 L 2.671875 25.214844 Z M 27.953125 27.46875 L 2.046875 27.46875 L 2.046875 26.050781 L 27.953125 26.050781 Z M 27.953125 27.46875 " fill-opacity="1" fill-rule="nonzero"/></g></svg>