<svg xmlns="http://www.w3.org/2000/svg" xmlns:xlink="http://www.w3.org/1999/xlink" width="40" zoomAndPan="magnify" viewBox="0 0 30 30.000001" height="40" preserveAspectRatio="xMidYMid meet" version="1.0"><defs><clipPath id="0cbd2b34ee"><path d="M 0.628906 4.421875 L 29.515625 4.421875 L 29.515625 24.746094 L 0.628906 24.746094 Z M 0.628906 4.421875 " clip-rule="nonzero"/></clipPath></defs><g clip-path="url(#0cbd2b34ee)"><path fill="#ffffff" d="M 3.628906 17.566406 L 1.046875 17.566406 C 0.824219 17.566406 0.640625 17.382812 0.640625 17.15625 L 0.640625 4.832031 C 0.640625 4.605469 0.824219 4.421875 1.046875 4.421875 L 4.835938 4.421875 C 5.0625 4.421875 5.242188 4.605469 5.242188 4.832031 L 5.242188 5.867188 L 10.605469 5.867188 L 10.605469 5.335938 C 10.605469 5.109375 10.789062 4.925781 11.015625 4.925781 C 11.242188 4.925781 11.425781 5.109375 11.425781 5.335938 L 11.425781 14.277344 L 18.777344 14.277344 L 18.777344 5.140625 C 18.777344 4.914062 18.957031 4.730469 19.183594 4.730469 C 19.410156 4.730469 19.59375 4.914062 19.59375 5.140625 L 19.59375 5.867188 L 24.898438 5.867188 L 24.898438 4.832031 C 24.898438 4.605469 25.082031 4.421875 25.308594 4.421875 L 29.09375 4.421875 C 29.320312 4.421875 29.503906 4.605469 29.503906 4.832031 L 29.503906 17.15625 C 29.503906 17.382812 29.320312 17.566406 29.09375 17.566406 L 26.511719 17.566406 L 26.511719 24.1875 C 26.511719 24.410156 26.328125 24.59375 26.101562 24.59375 L 22.070312 24.59375 C 21.847656 24.59375 21.664062 24.410156 21.664062 24.1875 L 21.664062 17.566406 L 20.660156 17.566406 L 20.660156 18.523438 C 20.660156 18.75 20.476562 18.933594 20.25 18.933594 L 19.96875 18.933594 L 19.96875 20.285156 L 20.25 20.285156 C 20.476562 20.285156 20.660156 20.464844 20.660156 20.691406 L 20.660156 22.019531 C 20.660156 22.246094 20.476562 22.425781 20.25 22.425781 L 19.96875 22.425781 L 19.96875 24.1875 C 19.96875 24.410156 19.785156 24.59375 19.558594 24.59375 L 10.585938 24.59375 C 10.359375 24.59375 10.175781 24.410156 10.175781 24.1875 L 10.175781 22.425781 L 9.890625 22.425781 C 9.664062 22.425781 9.484375 22.246094 9.484375 22.019531 L 9.484375 20.691406 C 9.484375 20.464844 9.664062 20.285156 9.890625 20.285156 L 10.175781 20.285156 L 10.175781 18.933594 L 9.890625 18.933594 C 9.664062 18.933594 9.484375 18.75 9.484375 18.523438 L 9.484375 17.566406 L 8.480469 17.566406 L 8.480469 24.1875 C 8.480469 24.410156 8.296875 24.59375 8.070312 24.59375 L 4.039062 24.59375 C 3.8125 24.59375 3.628906 24.410156 3.628906 24.1875 Z M 5.242188 6.6875 L 5.242188 14.277344 L 6.613281 14.277344 L 6.613281 6.6875 Z M 7.429688 14.277344 L 8.625 14.277344 L 8.625 6.6875 L 7.429688 6.6875 Z M 9.445312 14.277344 L 10.605469 14.277344 L 10.605469 6.6875 L 9.445312 6.6875 Z M 25.308594 15.09375 L 4.835938 15.09375 C 4.609375 15.09375 4.425781 14.910156 4.425781 14.683594 L 4.425781 5.238281 L 1.457031 5.238281 C 1.457031 5.238281 1.457031 16.746094 1.457031 16.746094 L 28.683594 16.746094 L 28.683594 5.238281 L 25.71875 5.238281 L 25.71875 14.683594 C 25.71875 14.910156 25.535156 15.09375 25.308594 15.09375 Z M 19.59375 14.277344 L 20.757812 14.277344 L 20.757812 6.6875 L 19.59375 6.6875 Z M 21.574219 14.277344 L 22.769531 14.277344 L 22.769531 6.6875 L 21.574219 6.6875 Z M 23.589844 14.277344 L 24.898438 14.277344 L 24.898438 6.6875 L 23.589844 6.6875 Z M 25.695312 17.566406 L 22.480469 17.566406 L 22.480469 23.777344 C 22.480469 23.777344 25.695312 23.777344 25.695312 23.777344 Z M 19.84375 17.566406 L 10.300781 17.566406 L 10.300781 18.117188 C 10.300781 18.117188 19.84375 18.117188 19.84375 18.117188 Z M 7.660156 17.566406 L 4.449219 17.566406 L 4.449219 23.777344 C 4.449219 23.777344 7.660156 23.777344 7.660156 23.777344 Z M 19.148438 18.933594 L 10.992188 18.933594 L 10.992188 20.285156 L 19.148438 20.285156 Z M 19.148438 22.425781 L 10.992188 22.425781 C 10.992188 22.945312 10.992188 23.777344 10.992188 23.777344 C 10.992188 23.777344 19.148438 23.777344 19.148438 23.777344 Z M 19.84375 21.101562 L 10.300781 21.101562 L 10.300781 21.609375 L 19.84375 21.609375 Z M 19.84375 21.101562 " fill-opacity="1" fill-rule="evenodd"/></g></svg>