<svg xmlns="http://www.w3.org/2000/svg" xmlns:xlink="http://www.w3.org/1999/xlink" width="50" zoomAndPan="magnify" viewBox="0 0 37.5 37.499999" height="50" preserveAspectRatio="xMidYMid meet" version="1.0"><defs><clipPath id="19798de243"><path d="M 8.667969 1 L 28.652344 1 L 28.652344 35.726562 L 8.667969 35.726562 Z M 8.667969 1 " clip-rule="nonzero"/></clipPath></defs><g clip-path="url(#19798de243)"><path fill="#000000" d="M 20.527344 35.578125 L 16.445312 35.578125 C 16.058594 35.578125 15.742188 35.273438 15.742188 34.894531 L 15.742188 31.6875 C 13.199219 31.492188 10.671875 30.820312 9.019531 29.890625 C 8.75 29.738281 8.613281 29.425781 8.691406 29.128906 L 9.941406 24.386719 C 9.996094 24.179688 10.148438 24.011719 10.347656 23.925781 C 10.546875 23.839844 10.777344 23.851562 10.964844 23.953125 C 12.152344 24.589844 14.582031 25.652344 17.53125 25.652344 C 18.304688 25.652344 20.824219 25.519531 20.824219 23.824219 C 20.824219 22.875 20.152344 22.023438 16.890625 20.949219 C 13.179688 19.730469 8.921875 17.714844 8.921875 12.878906 C 8.921875 9.070312 11.601562 6.132812 15.953125 5.109375 L 15.953125 1.8125 C 15.953125 1.433594 16.269531 1.125 16.65625 1.125 L 20.734375 1.125 C 21.121094 1.125 21.4375 1.433594 21.4375 1.8125 L 21.4375 4.730469 C 23.605469 4.886719 25.457031 5.339844 27.078125 6.101562 C 27.378906 6.242188 27.535156 6.574219 27.453125 6.890625 L 26.246094 11.46875 C 26.191406 11.664062 26.058594 11.824219 25.875 11.914062 C 25.691406 12 25.476562 12.007812 25.289062 11.929688 L 24.96875 11.796875 C 23.847656 11.320312 22.152344 10.605469 19.574219 10.605469 C 18.496094 10.605469 16.695312 10.8125 16.695312 12.1875 C 16.695312 13.0625 17.886719 13.804688 21.234375 15.035156 C 26.421875 16.820312 28.636719 19.277344 28.636719 23.257812 C 28.636719 27.230469 25.753906 30.347656 21.234375 31.324219 L 21.234375 34.894531 C 21.230469 35.273438 20.914062 35.578125 20.527344 35.578125 Z M 17.152344 34.207031 L 19.824219 34.207031 L 19.824219 30.757812 C 19.824219 30.425781 20.066406 30.140625 20.40625 30.082031 C 24.613281 29.367188 27.226562 26.753906 27.226562 23.257812 C 27.226562 19.871094 25.410156 17.925781 20.75 16.324219 C 17.042969 14.964844 15.285156 14 15.285156 12.1875 C 15.285156 11.496094 15.597656 9.234375 19.570312 9.234375 C 22.097656 9.234375 23.898438 9.867188 25.082031 10.351562 L 25.9375 7.105469 C 24.445312 6.492188 22.726562 6.152344 20.699219 6.0625 C 20.328125 6.046875 20.03125 5.746094 20.03125 5.378906 L 20.03125 2.496094 L 17.359375 2.496094 L 17.359375 5.664062 C 17.359375 5.992188 17.121094 6.273438 16.792969 6.335938 C 12.746094 7.109375 10.328125 9.554688 10.328125 12.878906 C 10.328125 16.015625 12.425781 18.039062 17.335938 19.648438 C 20.273438 20.613281 22.230469 21.695312 22.230469 23.824219 C 22.230469 25.800781 20.429688 27.023438 17.53125 27.023438 C 14.835938 27.023438 12.539062 26.226562 11.089844 25.554688 L 10.191406 28.949219 C 11.804688 29.714844 14.195312 30.257812 16.480469 30.359375 C 16.855469 30.375 17.152344 30.675781 17.152344 31.042969 Z M 17.152344 34.207031 " fill-opacity="1" fill-rule="nonzero"/></g></svg>