<svg xmlns="http://www.w3.org/2000/svg" xmlns:xlink="http://www.w3.org/1999/xlink" width="40" zoomAndPan="magnify" viewBox="0 0 30 30.000001" height="40" preserveAspectRatio="xMidYMid meet" version="1.0"><defs><clipPath id="343297117a"><path d="M 0.484375 3.121094 L 29.515625 3.121094 L 29.515625 25.621094 L 0.484375 25.621094 Z M 0.484375 3.121094 " clip-rule="nonzero"/></clipPath></defs><g clip-path="url(#343297117a)"><path fill="#ffffff" d="M 28.222656 9.234375 C 28.253906 9.191406 28.265625 9.140625 28.261719 9.085938 L 28.261719 9.058594 L 27.117188 4.527344 L 27.117188 4.488281 C 27.109375 4.453125 27.09375 4.417969 27.066406 4.390625 L 27.046875 4.390625 C 27.023438 4.378906 27 4.371094 26.976562 4.371094 L 22.925781 4.371094 L 23.910156 9.289062 C 24.371094 9.289062 28.09375 9.367188 28.203125 9.238281 Z M 28.332031 10.484375 C 28.261719 10.503906 28.195312 10.507812 28.125 10.507812 L 23.414062 10.507812 C 23.265625 10.507812 23.136719 10.460938 23.023438 10.371094 C 22.910156 10.277344 22.835938 10.160156 22.808594 10.019531 L 21.582031 3.882812 C 21.570312 3.839844 21.5625 3.792969 21.558594 3.746094 C 21.558594 3.574219 21.617188 3.425781 21.742188 3.304688 C 21.863281 3.183594 22.007812 3.125 22.179688 3.128906 L 26.949219 3.128906 C 27.253906 3.128906 27.53125 3.222656 27.773438 3.40625 L 27.828125 3.445312 C 28.066406 3.652344 28.222656 3.914062 28.292969 4.222656 L 29.449219 8.789062 C 29.449219 8.789062 29.449219 8.828125 29.449219 8.847656 C 29.453125 8.925781 29.453125 9.007812 29.449219 9.085938 C 29.460938 9.417969 29.367188 9.714844 29.171875 9.984375 C 28.960938 10.269531 28.679688 10.4375 28.324219 10.488281 Z M 13.589844 4.351562 L 9.867188 4.351562 L 8.871094 9.289062 L 13.589844 9.289062 Z M 9.359375 3.128906 L 14.210938 3.128906 C 14.378906 3.125 14.527344 3.183594 14.648438 3.304688 C 14.769531 3.425781 14.832031 3.574219 14.828125 3.746094 L 14.828125 9.898438 C 14.828125 10.070312 14.765625 10.214844 14.644531 10.332031 C 14.523438 10.449219 14.378906 10.507812 14.210938 10.507812 L 8.125 10.507812 C 8.085938 10.511719 8.046875 10.511719 8.003906 10.507812 C 7.839844 10.472656 7.710938 10.382812 7.617188 10.242188 C 7.523438 10.101562 7.492188 9.949219 7.527344 9.78125 L 8.753906 3.644531 C 8.78125 3.496094 8.851562 3.375 8.964844 3.28125 C 9.078125 3.1875 9.210938 3.136719 9.359375 3.136719 Z M 20.097656 4.351562 L 16.375 4.351562 L 16.375 9.289062 L 21.09375 9.289062 Z M 15.757812 3.128906 L 20.605469 3.128906 C 20.75 3.125 20.878906 3.171875 20.992188 3.265625 C 21.101562 3.355469 21.171875 3.472656 21.199219 3.617188 L 22.4375 9.75 C 22.449219 9.800781 22.457031 9.851562 22.457031 9.898438 C 22.457031 10.070312 22.394531 10.214844 22.273438 10.332031 C 22.152344 10.449219 22.007812 10.507812 21.839844 10.507812 L 15.757812 10.507812 C 15.585938 10.507812 15.441406 10.449219 15.320312 10.332031 C 15.199219 10.214844 15.136719 10.070312 15.136719 9.898438 L 15.136719 3.746094 C 15.136719 3.574219 15.195312 3.425781 15.316406 3.304688 C 15.4375 3.183594 15.585938 3.125 15.757812 3.128906 Z M 1.859375 9.289062 L 6.039062 9.289062 L 7.039062 4.351562 L 3.015625 4.351562 C 2.976562 4.347656 2.941406 4.363281 2.914062 4.390625 C 2.894531 4.414062 2.878906 4.4375 2.867188 4.46875 L 1.710938 9.046875 C 1.703125 9.0625 1.703125 9.078125 1.710938 9.09375 C 1.710938 9.144531 1.726562 9.1875 1.75 9.222656 C 1.769531 9.253906 1.796875 9.273438 1.832031 9.285156 L 1.871094 9.285156 Z M 6.550781 10.507812 L 1.859375 10.507812 C 1.757812 10.507812 1.652344 10.496094 1.554688 10.476562 C 1.234375 10.402344 0.976562 10.238281 0.777344 9.984375 C 0.574219 9.726562 0.472656 9.4375 0.476562 9.109375 C 0.476562 9.011719 0.488281 8.910156 0.503906 8.8125 C 0.503906 8.796875 0.503906 8.777344 0.503906 8.761719 L 1.660156 4.183594 C 1.746094 3.878906 1.910156 3.632812 2.160156 3.4375 C 2.410156 3.246094 2.691406 3.144531 3.003906 3.136719 L 7.785156 3.136719 C 7.824219 3.132812 7.867188 3.132812 7.90625 3.136719 C 8.074219 3.171875 8.207031 3.257812 8.300781 3.398438 C 8.394531 3.542969 8.425781 3.695312 8.394531 3.863281 L 7.15625 10 C 7.132812 10.148438 7.0625 10.269531 6.945312 10.363281 C 6.832031 10.460938 6.699219 10.507812 6.550781 10.507812 Z M 28.105469 13.582031 L 27.136719 13.582031 C 26.96875 13.585938 26.824219 13.527344 26.703125 13.410156 C 26.582031 13.292969 26.523438 13.148438 26.519531 12.980469 C 26.519531 12.9375 26.519531 12.910156 26.519531 12.878906 L 26.632812 12.046875 L 3.324219 12.046875 L 3.433594 12.898438 C 3.457031 13.070312 3.417969 13.226562 3.3125 13.363281 C 3.207031 13.5 3.070312 13.578125 2.898438 13.597656 L 1.851562 13.597656 C 1.757812 13.605469 1.703125 13.660156 1.691406 13.757812 L 1.691406 15.296875 C 1.695312 15.339844 1.710938 15.375 1.746094 15.40625 L 1.746094 15.425781 C 1.773438 15.445312 1.804688 15.457031 1.84375 15.457031 L 3.195312 15.457031 C 3.359375 15.445312 3.5 15.492188 3.625 15.597656 C 3.75 15.703125 3.816406 15.835938 3.835938 15.996094 L 4.804688 23.660156 L 4.804688 24.507812 C 4.804688 24.550781 4.820312 24.585938 4.851562 24.617188 C 4.882812 24.648438 4.917969 24.664062 4.960938 24.664062 L 6.507812 24.664062 C 6.550781 24.664062 6.585938 24.648438 6.613281 24.617188 C 6.644531 24.585938 6.664062 24.550781 6.664062 24.507812 L 6.664062 23.742188 C 6.660156 23.570312 6.71875 23.425781 6.839844 23.304688 C 6.957031 23.183594 7.101562 23.125 7.273438 23.125 L 22.707031 23.125 C 22.875 23.125 23.019531 23.183594 23.140625 23.304688 C 23.261719 23.425781 23.320312 23.570312 23.316406 23.742188 L 23.316406 24.507812 C 23.316406 24.550781 23.332031 24.585938 23.363281 24.617188 C 23.394531 24.648438 23.429688 24.664062 23.472656 24.664062 L 25.019531 24.664062 C 25.0625 24.664062 25.097656 24.648438 25.128906 24.617188 C 25.160156 24.585938 25.175781 24.550781 25.175781 24.507812 L 25.175781 23.742188 C 25.171875 23.707031 25.171875 23.675781 25.175781 23.644531 L 26.128906 15.976562 C 26.152344 15.824219 26.21875 15.695312 26.332031 15.59375 C 26.449219 15.496094 26.582031 15.441406 26.738281 15.441406 L 28.09375 15.441406 C 28.136719 15.441406 28.171875 15.421875 28.199219 15.390625 C 28.234375 15.363281 28.25 15.324219 28.253906 15.28125 L 28.253906 13.742188 C 28.242188 13.648438 28.1875 13.59375 28.09375 13.582031 Z M 27.835938 12.363281 L 28.105469 12.363281 C 28.289062 12.363281 28.46875 12.398438 28.640625 12.46875 C 28.808594 12.539062 28.960938 12.640625 29.089844 12.769531 C 29.222656 12.902344 29.324219 13.054688 29.394531 13.222656 C 29.464844 13.394531 29.5 13.570312 29.5 13.757812 L 29.5 15.296875 C 29.496094 15.675781 29.355469 15.996094 29.082031 16.253906 C 28.8125 16.527344 28.488281 16.664062 28.105469 16.664062 L 27.296875 16.664062 L 26.402344 23.78125 L 26.402344 24.519531 C 26.40625 24.898438 26.269531 25.222656 25.996094 25.488281 C 25.726562 25.761719 25.402344 25.898438 25.019531 25.898438 L 23.472656 25.898438 C 23.089844 25.898438 22.765625 25.761719 22.496094 25.488281 C 22.230469 25.222656 22.09375 24.898438 22.089844 24.519531 L 22.089844 24.359375 L 7.875 24.359375 L 7.875 24.519531 C 7.878906 24.898438 7.742188 25.222656 7.46875 25.488281 C 7.199219 25.761719 6.875 25.898438 6.492188 25.898438 L 4.945312 25.898438 C 4.5625 25.898438 4.238281 25.761719 3.96875 25.488281 C 3.695312 25.222656 3.558594 24.898438 3.5625 24.519531 L 3.5625 23.78125 L 2.667969 16.664062 L 1.859375 16.664062 C 1.503906 16.664062 1.191406 16.546875 0.921875 16.3125 C 0.921875 16.3125 0.894531 16.285156 0.882812 16.265625 C 0.609375 16 0.472656 15.675781 0.476562 15.292969 L 0.476562 13.742188 C 0.476562 13.558594 0.511719 13.378906 0.582031 13.210938 C 0.652344 13.039062 0.753906 12.886719 0.882812 12.757812 C 1.015625 12.625 1.164062 12.527344 1.335938 12.457031 C 1.507812 12.382812 1.683594 12.347656 1.871094 12.347656 L 2.136719 12.347656 L 2.039062 11.511719 C 2.035156 11.484375 2.035156 11.457031 2.039062 11.425781 C 2.039062 11.257812 2.09375 11.113281 2.214844 10.992188 C 2.332031 10.871094 2.476562 10.808594 2.648438 10.808594 L 27.410156 10.808594 C 27.578125 10.832031 27.71875 10.910156 27.824219 11.046875 C 27.929688 11.183594 27.96875 11.335938 27.945312 11.507812 Z M 27.835938 12.363281 " fill-opacity="1" fill-rule="nonzero"/></g></svg>