<svg xmlns="http://www.w3.org/2000/svg" xmlns:xlink="http://www.w3.org/1999/xlink" width="50" zoomAndPan="magnify" viewBox="0 0 37.5 37.499999" height="50" preserveAspectRatio="xMidYMid meet" version="1.0"><defs><clipPath id="d1f0c1e3c5"><path d="M 1.695312 8.082031 L 35 8.082031 L 35 28.808594 L 1.695312 28.808594 Z M 1.695312 8.082031 " clip-rule="nonzero"/></clipPath></defs><g clip-path="url(#d1f0c1e3c5)"><path fill="#000000" d="M 34.171875 25.363281 L 32.171875 25.351562 C 31.816406 24.273438 30.792969 23.480469 29.570312 23.480469 C 28.351562 23.480469 27.324219 24.269531 26.972656 25.347656 L 24.449219 25.347656 L 24.449219 15.515625 L 30.257812 15.515625 L 34.15625 20.535156 C 34.175781 20.558594 34.1875 20.585938 34.1875 20.613281 Z M 29.570312 28.160156 C 28.425781 28.160156 27.492188 27.257812 27.492188 26.152344 C 27.492188 25.042969 28.425781 24.144531 29.570312 24.144531 C 30.714844 24.144531 31.648438 25.042969 31.648438 26.152344 C 31.648438 27.257812 30.714844 28.160156 29.570312 28.160156 Z M 16.007812 23.480469 C 14.789062 23.480469 13.761719 24.269531 13.410156 25.347656 L 11.707031 25.347656 C 11.355469 24.269531 10.328125 23.480469 9.105469 23.480469 C 7.886719 23.480469 6.863281 24.269531 6.507812 25.347656 L 5.722656 25.347656 L 5.722656 23.363281 L 23.789062 23.363281 L 23.789062 25.347656 L 18.609375 25.347656 C 18.253906 24.269531 17.230469 23.480469 16.007812 23.480469 Z M 16.007812 28.160156 C 14.863281 28.160156 13.933594 27.257812 13.933594 26.152344 C 13.933594 25.042969 14.863281 24.144531 16.007812 24.144531 C 17.15625 24.144531 18.085938 25.042969 18.085938 26.152344 C 18.085938 27.257812 17.15625 28.160156 16.007812 28.160156 Z M 9.105469 28.160156 C 7.960938 28.160156 7.03125 27.257812 7.03125 26.152344 C 7.03125 25.042969 7.960938 24.144531 9.105469 24.144531 C 10.253906 24.144531 11.1875 25.042969 11.1875 26.152344 C 11.1875 27.257812 10.253906 28.160156 9.105469 28.160156 Z M 2.613281 13.785156 L 23.851562 8.878906 L 23.707031 9.265625 L 22.789062 9.476562 C 21.699219 9.726562 20.988281 10.753906 21.132812 11.863281 L 22.023438 18.769531 L 5.574219 22.566406 Z M 19.890625 20.992188 L 18.253906 20.992188 C 18.074219 20.992188 17.925781 21.140625 17.925781 21.324219 L 17.925781 22.703125 L 7.941406 22.703125 L 19.890625 19.941406 Z M 21.855469 22.625 L 18.585938 22.625 L 18.585938 21.652344 L 21.855469 21.652344 Z M 30.679688 14.976562 C 30.617188 14.898438 30.519531 14.851562 30.417969 14.851562 L 24.121094 14.851562 C 23.941406 14.851562 23.789062 15 23.789062 15.183594 L 23.789062 22.703125 L 22.515625 22.703125 L 22.515625 21.324219 C 22.515625 21.140625 22.367188 20.992188 22.183594 20.992188 L 20.550781 20.992188 L 20.550781 19.789062 L 22.460938 19.347656 C 22.625 19.308594 22.738281 19.148438 22.714844 18.980469 L 21.785156 11.777344 C 21.683594 11.007812 22.179688 10.292969 22.9375 10.121094 L 24.027344 9.871094 C 24.132812 9.84375 24.222656 9.769531 24.261719 9.667969 L 24.6875 8.535156 C 24.730469 8.421875 24.707031 8.292969 24.628906 8.199219 C 24.546875 8.109375 24.425781 8.066406 24.304688 8.09375 L 2.109375 13.21875 C 2.019531 13.242188 1.941406 13.300781 1.894531 13.382812 C 1.847656 13.460938 1.839844 13.5625 1.871094 13.648438 L 5.046875 23.0625 C 5.050781 23.074219 5.058594 23.078125 5.0625 23.085938 L 5.0625 25.679688 C 5.0625 25.863281 5.210938 26.011719 5.394531 26.011719 L 6.386719 26.011719 C 6.382812 26.0625 6.371094 26.105469 6.371094 26.152344 C 6.371094 27.621094 7.597656 28.820312 9.105469 28.820312 C 10.617188 28.820312 11.847656 27.621094 11.847656 26.152344 C 11.847656 26.105469 11.832031 26.0625 11.832031 26.011719 L 13.285156 26.011719 C 13.28125 26.0625 13.273438 26.105469 13.273438 26.152344 C 13.273438 27.621094 14.5 28.820312 16.007812 28.820312 C 17.519531 28.820312 18.746094 27.621094 18.746094 26.152344 C 18.746094 26.105469 18.738281 26.0625 18.734375 26.011719 L 26.847656 26.011719 C 26.84375 26.0625 26.832031 26.105469 26.832031 26.152344 C 26.832031 27.621094 28.0625 28.820312 29.570312 28.820312 C 31.078125 28.820312 32.308594 27.621094 32.308594 26.152344 C 32.308594 26.105469 32.296875 26.0625 32.292969 26.015625 L 34.171875 26.023438 C 34.542969 26.023438 34.847656 25.726562 34.847656 25.355469 L 34.847656 20.613281 C 34.847656 20.425781 34.777344 20.242188 34.664062 20.113281 L 30.679688 14.976562 " fill-opacity="1" fill-rule="nonzero"/></g><path fill="#000000" d="M 25.664062 20.128906 L 25.664062 16.710938 L 29.578125 16.710938 L 32.140625 20.128906 Z M 30.007812 16.179688 C 29.945312 16.097656 29.847656 16.050781 29.746094 16.050781 L 25.332031 16.050781 C 25.148438 16.050781 25.003906 16.195312 25.003906 16.378906 L 25.003906 20.457031 C 25.003906 20.640625 25.148438 20.789062 25.332031 20.789062 L 32.804688 20.789062 C 32.929688 20.789062 33.042969 20.71875 33.097656 20.605469 C 33.15625 20.492188 33.140625 20.359375 33.066406 20.257812 L 30.007812 16.179688 " fill-opacity="1" fill-rule="nonzero"/><path fill="#000000" d="M 9.105469 26.796875 C 8.734375 26.796875 8.433594 26.507812 8.433594 26.152344 C 8.433594 25.792969 8.734375 25.503906 9.105469 25.503906 C 9.480469 25.503906 9.785156 25.792969 9.785156 26.152344 C 9.785156 26.507812 9.480469 26.796875 9.105469 26.796875 Z M 9.105469 24.84375 C 8.371094 24.84375 7.773438 25.429688 7.773438 26.152344 C 7.773438 26.871094 8.371094 27.460938 9.105469 27.460938 C 9.84375 27.460938 10.445312 26.871094 10.445312 26.152344 C 10.445312 25.429688 9.84375 24.84375 9.105469 24.84375 " fill-opacity="1" fill-rule="nonzero"/><path fill="#000000" d="M 16.007812 26.796875 C 15.636719 26.796875 15.332031 26.507812 15.332031 26.152344 C 15.332031 25.792969 15.636719 25.503906 16.007812 25.503906 C 16.382812 25.503906 16.6875 25.792969 16.6875 26.152344 C 16.6875 26.507812 16.382812 26.796875 16.007812 26.796875 Z M 16.007812 24.84375 C 15.273438 24.84375 14.671875 25.429688 14.671875 26.152344 C 14.671875 26.871094 15.273438 27.460938 16.007812 27.460938 C 16.746094 27.460938 17.347656 26.871094 17.347656 26.152344 C 17.347656 25.429688 16.746094 24.84375 16.007812 24.84375 " fill-opacity="1" fill-rule="nonzero"/><path fill="#000000" d="M 29.570312 26.796875 C 29.199219 26.796875 28.894531 26.507812 28.894531 26.152344 C 28.894531 25.792969 29.199219 25.503906 29.570312 25.503906 C 29.945312 25.503906 30.246094 25.792969 30.246094 26.152344 C 30.246094 26.507812 29.945312 26.796875 29.570312 26.796875 Z M 29.570312 24.84375 C 28.835938 24.84375 28.234375 25.429688 28.234375 26.152344 C 28.234375 26.871094 28.835938 27.460938 29.570312 27.460938 C 30.308594 27.460938 30.90625 26.871094 30.90625 26.152344 C 30.90625 25.429688 30.308594 24.84375 29.570312 24.84375 " fill-opacity="1" fill-rule="nonzero"/><path fill="#000000" d="M 26.492188 21.148438 L 25.277344 21.148438 C 25.09375 21.148438 24.949219 21.292969 24.949219 21.476562 C 24.949219 21.660156 25.09375 21.808594 25.277344 21.808594 L 26.492188 21.808594 C 26.671875 21.808594 26.820312 21.660156 26.820312 21.476562 C 26.820312 21.292969 26.671875 21.148438 26.492188 21.148438 " fill-opacity="1" fill-rule="nonzero"/><path fill="#000000" d="M 7.1875 21.652344 C 7.214844 21.652344 7.242188 21.652344 7.265625 21.644531 C 7.441406 21.605469 7.554688 21.425781 7.511719 21.246094 L 5.917969 14.335938 C 5.875 14.15625 5.699219 14.042969 5.519531 14.085938 C 5.339844 14.128906 5.230469 14.304688 5.273438 14.484375 L 6.871094 21.398438 C 6.902344 21.550781 7.039062 21.652344 7.1875 21.652344 " fill-opacity="1" fill-rule="nonzero"/><path fill="#000000" d="M 11.210938 20.394531 C 11.246094 20.546875 11.382812 20.648438 11.53125 20.648438 C 11.558594 20.648438 11.582031 20.648438 11.605469 20.640625 C 11.785156 20.601562 11.894531 20.421875 11.855469 20.246094 L 10.257812 13.332031 C 10.21875 13.15625 10.042969 13.042969 9.863281 13.082031 C 9.683594 13.125 9.574219 13.300781 9.617188 13.480469 L 11.210938 20.394531 " fill-opacity="1" fill-rule="nonzero"/><path fill="#000000" d="M 15.554688 19.390625 C 15.59375 19.546875 15.730469 19.648438 15.878906 19.648438 C 15.902344 19.648438 15.925781 19.648438 15.953125 19.640625 C 16.128906 19.597656 16.238281 19.421875 16.199219 19.242188 L 14.601562 12.328125 C 14.5625 12.152344 14.386719 12.039062 14.207031 12.082031 C 14.03125 12.125 13.917969 12.300781 13.960938 12.476562 L 15.554688 19.390625 " fill-opacity="1" fill-rule="nonzero"/><path fill="#000000" d="M 19.898438 18.390625 C 19.933594 18.542969 20.070312 18.644531 20.222656 18.644531 C 20.246094 18.644531 20.269531 18.644531 20.296875 18.636719 C 20.472656 18.59375 20.585938 18.417969 20.542969 18.238281 L 18.949219 11.328125 C 18.90625 11.148438 18.730469 11.035156 18.550781 11.078125 C 18.375 11.121094 18.261719 11.296875 18.304688 11.472656 L 19.898438 18.390625 " fill-opacity="1" fill-rule="nonzero"/></svg>