<svg xmlns="http://www.w3.org/2000/svg" xmlns:xlink="http://www.w3.org/1999/xlink" width="50" zoomAndPan="magnify" viewBox="0 0 37.5 37.499999" height="50" preserveAspectRatio="xMidYMid meet" version="1.0"><defs><clipPath id="f9b608b069"><path d="M 2.292969 2.292969 L 34.859375 2.292969 L 34.859375 24 L 2.292969 24 Z M 2.292969 2.292969 " clip-rule="nonzero"/></clipPath><clipPath id="3a0bf93a5b"><path d="M 2.292969 13 L 19 13 L 19 34.859375 L 2.292969 34.859375 Z M 2.292969 13 " clip-rule="nonzero"/></clipPath><clipPath id="03fdbd6e42"><path d="M 13 24 L 29 24 L 29 34.859375 L 13 34.859375 Z M 13 24 " clip-rule="nonzero"/></clipPath><clipPath id="1263463f5a"><path d="M 2.292969 2.292969 L 14 2.292969 L 14 14 L 2.292969 14 Z M 2.292969 2.292969 " clip-rule="nonzero"/></clipPath><clipPath id="b0dce15c96"><path d="M 2.292969 13 L 8 13 L 8 24 L 2.292969 24 Z M 2.292969 13 " clip-rule="nonzero"/></clipPath><clipPath id="1d4800c51f"><path d="M 2.292969 23 L 19 23 L 19 34.859375 L 2.292969 34.859375 Z M 2.292969 23 " clip-rule="nonzero"/></clipPath><clipPath id="990846c9b3"><path d="M 2.292969 13 L 8 13 L 8 24 L 2.292969 24 Z M 2.292969 13 " clip-rule="nonzero"/></clipPath><clipPath id="42949e2bef"><path d="M 23 23 L 34.859375 23 L 34.859375 34.859375 L 23 34.859375 Z M 23 23 " clip-rule="nonzero"/></clipPath><clipPath id="c365ee656d"><path d="M 23 13 L 34.859375 13 L 34.859375 31 L 23 31 Z M 23 13 " clip-rule="nonzero"/></clipPath><clipPath id="113bd9d356"><path d="M 2.292969 2.292969 L 19 2.292969 L 19 19 L 2.292969 19 Z M 2.292969 2.292969 " clip-rule="nonzero"/></clipPath><clipPath id="9f36c04f4d"><path d="M 23 2.292969 L 34.859375 2.292969 L 34.859375 9 L 23 9 Z M 23 2.292969 " clip-rule="nonzero"/></clipPath><clipPath id="6e85c4ee0e"><path d="M 12 2.292969 L 30 2.292969 L 30 20 L 12 20 Z M 12 2.292969 " clip-rule="nonzero"/></clipPath><clipPath id="99475a5f42"><path d="M 12 2.292969 L 24 2.292969 L 24 9 L 12 9 Z M 12 2.292969 " clip-rule="nonzero"/></clipPath><clipPath id="d99328f01b"><path d="M 23 2.292969 L 34.859375 2.292969 L 34.859375 9 L 23 9 Z M 23 2.292969 " clip-rule="nonzero"/></clipPath><clipPath id="d320090455"><path d="M 23 2.292969 L 34.859375 2.292969 L 34.859375 20 L 23 20 Z M 23 2.292969 " clip-rule="nonzero"/></clipPath></defs><g clip-path="url(#f9b608b069)"><path fill="#ffffff" d="M 2.570312 23.898438 C 2.535156 23.898438 2.503906 23.890625 2.472656 23.878906 C 2.375 23.839844 2.316406 23.746094 2.316406 23.644531 L 2.316406 13.621094 C 2.316406 13.519531 2.375 13.425781 2.472656 13.386719 C 2.566406 13.347656 2.675781 13.367188 2.75 13.441406 L 7.757812 18.453125 C 7.859375 18.550781 7.859375 18.710938 7.757812 18.8125 L 6.664062 19.910156 L 2.75 23.824219 C 2.699219 23.871094 2.636719 23.898438 2.570312 23.898438 Z M 2.824219 14.234375 L 2.824219 23.03125 L 6.304688 19.546875 L 7.21875 18.632812 Z M 29.03125 8.238281 C 28.964844 8.238281 28.902344 8.210938 28.851562 8.164062 L 23.449219 2.761719 C 23.378906 2.6875 23.355469 2.578125 23.394531 2.484375 C 23.433594 2.390625 23.527344 2.328125 23.628906 2.328125 L 34.433594 2.328125 C 34.539062 2.328125 34.628906 2.390625 34.671875 2.484375 C 34.710938 2.578125 34.6875 2.6875 34.613281 2.761719 L 29.210938 8.164062 C 29.164062 8.210938 29.101562 8.238281 29.03125 8.238281 Z M 24.246094 2.835938 L 29.03125 7.625 L 33.820312 2.835938 Z M 24.246094 2.835938 " fill-opacity="1" fill-rule="nonzero"/></g><g clip-path="url(#3a0bf93a5b)"><path fill="#ffffff" d="M 2.570312 34.703125 C 2.535156 34.703125 2.503906 34.695312 2.472656 34.683594 C 2.375 34.644531 2.316406 34.550781 2.316406 34.449219 L 2.316406 23.644531 C 2.316406 23.574219 2.339844 23.511719 2.390625 23.464844 L 12.292969 13.558594 C 12.339844 13.511719 12.40625 13.484375 12.472656 13.484375 C 12.539062 13.484375 12.605469 13.511719 12.652344 13.558594 L 18.054688 18.960938 C 18.15625 19.0625 18.15625 19.222656 18.054688 19.320312 L 2.75 34.628906 C 2.699219 34.675781 2.636719 34.703125 2.570312 34.703125 Z M 2.824219 23.75 L 2.824219 33.835938 L 17.515625 19.140625 L 12.472656 14.097656 Z M 2.824219 23.75 " fill-opacity="1" fill-rule="nonzero"/></g><g clip-path="url(#03fdbd6e42)"><path fill="#ffffff" d="M 24.023438 34.703125 L 14.039062 34.703125 C 13.9375 34.703125 13.84375 34.640625 13.804688 34.546875 C 13.765625 34.449219 13.789062 34.339844 13.859375 34.269531 L 23.433594 24.699219 C 23.53125 24.597656 23.691406 24.597656 23.792969 24.699219 L 28.78125 29.6875 C 28.828125 29.734375 28.855469 29.800781 28.855469 29.867188 C 28.855469 29.933594 28.828125 30 28.78125 30.046875 L 24.203125 34.628906 C 24.152344 34.675781 24.089844 34.703125 24.023438 34.703125 Z M 14.65625 34.195312 L 23.917969 34.195312 L 28.242188 29.867188 L 23.613281 25.238281 Z M 14.65625 34.195312 " fill-opacity="1" fill-rule="nonzero"/></g><g clip-path="url(#1263463f5a)"><path fill="#ffffff" d="M 2.570312 13.484375 C 2.535156 13.484375 2.503906 13.476562 2.472656 13.464844 C 2.375 13.425781 2.316406 13.332031 2.316406 13.230469 L 2.316406 2.582031 C 2.316406 2.441406 2.429688 2.328125 2.570312 2.328125 L 13.21875 2.328125 C 13.320312 2.328125 13.414062 2.390625 13.453125 2.484375 C 13.492188 2.578125 13.46875 2.6875 13.398438 2.761719 L 2.75 13.410156 C 2.699219 13.457031 2.636719 13.484375 2.570312 13.484375 Z M 2.824219 2.835938 L 2.824219 12.617188 L 12.601562 2.835938 Z M 2.824219 2.835938 " fill-opacity="1" fill-rule="nonzero"/></g><g clip-path="url(#b0dce15c96)"><path fill="#ffffff" d="M 2.570312 23.898438 C 2.535156 23.898438 2.503906 23.890625 2.472656 23.878906 C 2.375 23.839844 2.316406 23.746094 2.316406 23.644531 L 2.316406 13.621094 C 2.316406 13.519531 2.375 13.425781 2.472656 13.386719 C 2.566406 13.347656 2.675781 13.367188 2.75 13.441406 L 7.761719 18.453125 C 7.859375 18.550781 7.859375 18.710938 7.761719 18.8125 L 2.75 23.824219 C 2.699219 23.871094 2.636719 23.898438 2.570312 23.898438 Z M 2.824219 14.234375 L 2.824219 23.03125 L 7.21875 18.632812 Z M 2.824219 14.234375 " fill-opacity="1" fill-rule="nonzero"/></g><g clip-path="url(#1d4800c51f)"><path fill="#ffffff" d="M 14.039062 34.703125 L 2.570312 34.703125 C 2.464844 34.703125 2.375 34.640625 2.335938 34.546875 C 2.292969 34.449219 2.316406 34.339844 2.390625 34.269531 L 12.800781 23.855469 C 12.902344 23.753906 13.0625 23.753906 13.164062 23.855469 L 18.898438 29.589844 C 18.996094 29.691406 18.996094 29.851562 18.898438 29.949219 L 14.222656 34.628906 C 14.171875 34.675781 14.109375 34.703125 14.039062 34.703125 Z M 3.183594 34.195312 L 13.9375 34.195312 L 18.359375 29.769531 L 12.980469 24.394531 Z M 3.183594 34.195312 " fill-opacity="1" fill-rule="nonzero"/></g><g clip-path="url(#990846c9b3)"><path fill="#ffffff" d="M 2.570312 23.898438 C 2.535156 23.898438 2.503906 23.890625 2.472656 23.878906 C 2.375 23.839844 2.316406 23.746094 2.316406 23.644531 L 2.316406 13.621094 C 2.316406 13.519531 2.375 13.425781 2.472656 13.386719 C 2.566406 13.347656 2.675781 13.367188 2.75 13.441406 L 7.761719 18.453125 C 7.859375 18.550781 7.859375 18.710938 7.761719 18.8125 L 2.75 23.824219 C 2.699219 23.871094 2.636719 23.898438 2.570312 23.898438 Z M 2.824219 14.234375 L 2.824219 23.03125 L 7.21875 18.632812 Z M 2.824219 14.234375 " fill-opacity="1" fill-rule="nonzero"/></g><g clip-path="url(#42949e2bef)"><path fill="#ffffff" d="M 34.433594 34.703125 L 24.023438 34.703125 C 23.917969 34.703125 23.828125 34.640625 23.785156 34.546875 C 23.746094 34.449219 23.769531 34.339844 23.84375 34.269531 L 34.253906 23.855469 C 34.328125 23.78125 34.4375 23.761719 34.53125 23.800781 C 34.628906 23.839844 34.691406 23.933594 34.691406 24.035156 L 34.691406 34.449219 C 34.691406 34.589844 34.574219 34.703125 34.433594 34.703125 Z M 24.636719 34.195312 L 34.179688 34.195312 L 34.179688 24.648438 Z M 24.636719 34.195312 " fill-opacity="1" fill-rule="nonzero"/></g><g clip-path="url(#c365ee656d)"><path fill="#ffffff" d="M 28.601562 30.121094 C 28.535156 30.121094 28.46875 30.09375 28.421875 30.046875 L 24.769531 26.394531 C 24.769531 26.394531 24.765625 26.390625 24.761719 26.386719 L 23.433594 25.058594 C 23.332031 24.957031 23.332031 24.796875 23.433594 24.699219 L 29.382812 18.746094 L 34.253906 13.871094 C 34.328125 13.800781 34.4375 13.777344 34.53125 13.816406 C 34.628906 13.855469 34.691406 13.949219 34.691406 14.050781 L 34.691406 24.035156 C 34.691406 24.101562 34.664062 24.167969 34.613281 24.214844 L 28.78125 30.046875 C 28.734375 30.09375 28.667969 30.121094 28.601562 30.121094 Z M 25.113281 26.019531 C 25.117188 26.023438 25.121094 26.027344 25.121094 26.027344 L 28.601562 29.507812 L 34.179688 23.929688 L 34.179688 14.667969 L 29.742188 19.105469 L 23.972656 24.878906 Z M 25.113281 26.019531 " fill-opacity="1" fill-rule="nonzero"/></g><path fill="#ffffff" d="M 18.71875 30.023438 C 18.652344 30.023438 18.589844 30 18.539062 29.949219 L 12.800781 24.214844 C 12.753906 24.167969 12.726562 24.101562 12.726562 24.035156 C 12.726562 23.96875 12.753906 23.902344 12.800781 23.855469 L 23.648438 13.011719 C 23.746094 12.910156 23.90625 12.910156 24.007812 13.011719 L 29.742188 18.746094 C 29.789062 18.792969 29.816406 18.859375 29.816406 18.925781 C 29.816406 18.992188 29.789062 19.058594 29.742188 19.105469 L 18.898438 29.949219 C 18.847656 30 18.785156 30.023438 18.71875 30.023438 Z M 13.34375 24.035156 L 18.71875 29.410156 L 29.203125 18.925781 L 23.828125 13.550781 Z M 13.34375 24.035156 " fill-opacity="1" fill-rule="nonzero"/><g clip-path="url(#113bd9d356)"><path fill="#ffffff" d="M 7.578125 18.886719 C 7.511719 18.886719 7.449219 18.859375 7.398438 18.8125 L 2.390625 13.800781 C 2.339844 13.753906 2.316406 13.6875 2.316406 13.621094 L 2.316406 13.230469 C 2.316406 13.164062 2.339844 13.097656 2.390625 13.050781 L 13.039062 2.402344 C 13.136719 2.304688 13.296875 2.304688 13.398438 2.402344 L 18.605469 7.609375 C 18.703125 7.707031 18.703125 7.867188 18.605469 7.96875 L 7.761719 18.8125 C 7.710938 18.859375 7.648438 18.886719 7.578125 18.886719 Z M 2.824219 13.515625 L 7.578125 18.273438 L 18.0625 7.789062 L 13.21875 2.941406 L 2.824219 13.335938 Z M 2.824219 13.515625 " fill-opacity="1" fill-rule="nonzero"/></g><g clip-path="url(#9f36c04f4d)"><path fill="#ffffff" d="M 29.03125 8.238281 C 28.96875 8.238281 28.902344 8.214844 28.851562 8.164062 L 23.449219 2.761719 C 23.378906 2.6875 23.355469 2.578125 23.394531 2.484375 C 23.433594 2.390625 23.527344 2.328125 23.628906 2.328125 L 34.433594 2.328125 C 34.539062 2.328125 34.628906 2.390625 34.671875 2.484375 C 34.710938 2.578125 34.6875 2.6875 34.613281 2.761719 L 29.210938 8.164062 C 29.164062 8.214844 29.097656 8.238281 29.03125 8.238281 Z M 24.246094 2.835938 L 29.03125 7.625 L 33.820312 2.835938 Z M 24.246094 2.835938 " fill-opacity="1" fill-rule="nonzero"/></g><g clip-path="url(#6e85c4ee0e)"><path fill="#ffffff" d="M 17.875 19.394531 C 17.808594 19.394531 17.742188 19.367188 17.695312 19.320312 L 12.292969 13.917969 C 12.195312 13.820312 12.195312 13.660156 12.292969 13.558594 L 23.449219 2.402344 C 23.550781 2.300781 23.710938 2.300781 23.808594 2.402344 L 29.210938 7.804688 C 29.261719 7.851562 29.289062 7.917969 29.289062 7.984375 C 29.289062 8.050781 29.261719 8.117188 29.210938 8.164062 L 18.054688 19.320312 C 18.007812 19.367188 17.941406 19.394531 17.875 19.394531 Z M 12.832031 13.738281 L 17.875 18.78125 L 28.671875 7.984375 L 23.628906 2.941406 Z M 12.832031 13.738281 " fill-opacity="1" fill-rule="nonzero"/></g><g clip-path="url(#99475a5f42)"><path fill="#ffffff" d="M 18.425781 8.042969 C 18.355469 8.042969 18.292969 8.015625 18.242188 7.96875 L 13.039062 2.761719 C 12.964844 2.6875 12.941406 2.578125 12.980469 2.484375 C 13.023438 2.390625 13.113281 2.328125 13.21875 2.328125 L 23.628906 2.328125 C 23.734375 2.328125 23.824219 2.390625 23.867188 2.484375 C 23.90625 2.578125 23.882812 2.6875 23.808594 2.761719 L 18.605469 7.96875 C 18.554688 8.015625 18.492188 8.042969 18.425781 8.042969 Z M 13.832031 2.835938 L 18.425781 7.429688 L 23.015625 2.835938 Z M 13.832031 2.835938 " fill-opacity="1" fill-rule="nonzero"/></g><g clip-path="url(#d99328f01b)"><path fill="#ffffff" d="M 29.03125 8.238281 C 28.96875 8.238281 28.902344 8.214844 28.851562 8.164062 L 23.449219 2.761719 C 23.378906 2.6875 23.355469 2.578125 23.394531 2.484375 C 23.433594 2.390625 23.527344 2.328125 23.628906 2.328125 L 34.433594 2.328125 C 34.539062 2.328125 34.628906 2.390625 34.671875 2.484375 C 34.710938 2.578125 34.6875 2.6875 34.613281 2.761719 L 29.210938 8.164062 C 29.164062 8.214844 29.097656 8.238281 29.03125 8.238281 Z M 24.246094 2.835938 L 29.03125 7.625 L 33.820312 2.835938 Z M 24.246094 2.835938 " fill-opacity="1" fill-rule="nonzero"/><path fill="#ffffff" d="M 29.03125 8.238281 C 28.96875 8.238281 28.902344 8.214844 28.851562 8.164062 L 23.449219 2.761719 C 23.378906 2.6875 23.355469 2.578125 23.394531 2.484375 C 23.433594 2.390625 23.527344 2.328125 23.628906 2.328125 L 34.433594 2.328125 C 34.539062 2.328125 34.628906 2.390625 34.671875 2.484375 C 34.710938 2.578125 34.6875 2.6875 34.613281 2.761719 L 29.210938 8.164062 C 29.164062 8.214844 29.097656 8.238281 29.03125 8.238281 Z M 24.246094 2.835938 L 29.03125 7.625 L 33.820312 2.835938 Z M 24.246094 2.835938 " fill-opacity="1" fill-rule="nonzero"/></g><g clip-path="url(#d320090455)"><path fill="#ffffff" d="M 29.5625 19.179688 C 29.496094 19.179688 29.429688 19.152344 29.382812 19.105469 L 23.648438 13.371094 C 23.597656 13.324219 23.570312 13.257812 23.570312 13.191406 C 23.570312 13.125 23.597656 13.058594 23.648438 13.011719 L 34.253906 2.402344 C 34.328125 2.328125 34.4375 2.308594 34.53125 2.347656 C 34.628906 2.386719 34.691406 2.480469 34.691406 2.582031 L 34.691406 14.050781 C 34.691406 14.121094 34.664062 14.183594 34.613281 14.230469 L 29.742188 19.105469 C 29.695312 19.152344 29.628906 19.179688 29.5625 19.179688 Z M 24.1875 13.191406 L 29.5625 18.566406 L 34.179688 13.945312 L 34.179688 3.195312 Z M 24.1875 13.191406 " fill-opacity="1" fill-rule="nonzero"/></g></svg>