<svg xmlns="http://www.w3.org/2000/svg" xmlns:xlink="http://www.w3.org/1999/xlink" width="50" zoomAndPan="magnify" viewBox="0 0 37.5 37.499999" height="50" preserveAspectRatio="xMidYMid meet" version="1.0"><defs><clipPath id="499a464014"><path d="M 0.59375 0.59375 L 36.117188 0.59375 L 36.117188 36.117188 L 0.59375 36.117188 Z M 0.59375 0.59375 " clip-rule="nonzero"/></clipPath></defs><g clip-path="url(#499a464014)"><path fill="#000000" d="M 30.597656 23.28125 L 21.375 20.808594 C 21.199219 20.761719 21.011719 20.828125 20.90625 20.972656 L 15.832031 27.824219 L 14.628906 24.859375 C 13.019531 20.894531 10.433594 18.925781 7.351562 19.324219 C 4.269531 19.71875 2.265625 22.273438 1.707031 26.515625 L 0.609375 34.816406 C 0.59375 34.945312 0.632812 35.070312 0.714844 35.167969 C 0.800781 35.261719 0.921875 35.316406 1.050781 35.316406 L 12.375 35.316406 C 12.9375 35.828125 13.675781 36.109375 14.492188 36.109375 L 22.585938 36.109375 C 23.980469 36.109375 25.117188 34.976562 25.117188 33.582031 C 25.117188 33.09375 24.96875 32.644531 24.703125 32.261719 L 30.839844 23.96875 C 30.929688 23.851562 30.953125 23.699219 30.902344 23.558594 C 30.855469 23.421875 30.742188 23.316406 30.597656 23.28125 Z M 22.585938 35.226562 L 14.492188 35.226562 C 13.574219 35.226562 12.792969 34.726562 12.40625 33.894531 L 9.433594 27.472656 C 9.359375 27.308594 9.199219 27.214844 9.03125 27.214844 C 8.972656 27.214844 8.90625 27.226562 8.847656 27.257812 C 8.625 27.359375 8.527344 27.621094 8.632812 27.84375 L 11.605469 34.265625 C 11.632812 34.320312 11.660156 34.378906 11.6875 34.433594 L 1.554688 34.433594 L 2.582031 26.628906 C 2.875 24.425781 3.894531 20.65625 7.464844 20.199219 C 11.035156 19.742188 12.972656 23.128906 13.808594 25.191406 L 16.015625 30.617188 C 16.070312 30.757812 16.199219 30.859375 16.351562 30.886719 L 22.160156 31.871094 L 22.511719 31.929688 C 23.304688 32.0625 24.230469 32.578125 24.230469 33.582031 C 24.230469 34.488281 23.492188 35.226562 22.585938 35.226562 Z M 24.074219 31.625 C 23.6875 31.347656 23.207031 31.148438 22.660156 31.058594 L 22.5625 31.042969 L 21.527344 28.003906 C 21.449219 27.769531 21.199219 27.648438 20.96875 27.726562 C 20.734375 27.804688 20.613281 28.054688 20.691406 28.285156 L 21.570312 30.871094 L 16.742188 30.054688 L 16.222656 28.78125 L 21.4375 21.738281 L 29.742188 23.964844 Z M 7.484375 11.050781 L 8.402344 11.351562 C 8.027344 12.109375 7.832031 12.945312 7.832031 13.800781 C 7.832031 16.855469 10.316406 19.339844 13.371094 19.339844 C 14.773438 19.339844 16.113281 18.8125 17.140625 17.859375 C 18.023438 17.039062 18.609375 15.964844 18.820312 14.792969 L 20.855469 15.464844 C 20.902344 15.480469 20.949219 15.488281 20.996094 15.488281 C 21.179688 15.488281 21.351562 15.367188 21.414062 15.183594 C 21.492188 14.949219 21.367188 14.699219 21.132812 14.625 L 19.441406 14.066406 C 19.660156 13.441406 19.769531 12.789062 19.769531 12.117188 C 19.769531 8.816406 17.082031 6.128906 13.78125 6.128906 C 12.417969 6.128906 11.082031 6.601562 10.023438 7.457031 C 9.105469 8.199219 8.425781 9.199219 8.074219 10.3125 L 7.761719 10.210938 C 7.53125 10.136719 7.28125 10.261719 7.203125 10.492188 C 7.128906 10.726562 7.253906 10.972656 7.484375 11.050781 Z M 13.371094 18.453125 C 10.804688 18.453125 8.71875 16.367188 8.71875 13.800781 C 8.71875 13.042969 8.902344 12.296875 9.25 11.632812 L 17.96875 14.511719 C 17.625 16.75 15.667969 18.453125 13.371094 18.453125 Z M 13.78125 7.015625 C 16.597656 7.015625 18.886719 9.304688 18.886719 12.117188 C 18.886719 12.691406 18.789062 13.253906 18.601562 13.789062 L 8.914062 10.589844 C 9.570312 8.464844 11.519531 7.015625 13.78125 7.015625 Z M 29.648438 0.597656 C 26.082031 0.597656 23.179688 3.503906 23.179688 7.070312 C 23.179688 10.636719 26.082031 13.539062 29.648438 13.539062 C 33.214844 13.539062 36.117188 10.636719 36.117188 7.070312 C 36.117188 3.503906 33.214844 0.597656 29.648438 0.597656 Z M 29.648438 12.65625 C 26.566406 12.65625 24.0625 10.148438 24.0625 7.070312 C 24.0625 3.988281 26.566406 1.484375 29.648438 1.484375 C 32.730469 1.484375 35.234375 3.988281 35.234375 7.070312 C 35.234375 10.148438 32.730469 12.65625 29.648438 12.65625 Z M 32.652344 4.929688 C 32.828125 5.101562 32.828125 5.382812 32.652344 5.554688 L 29 9.210938 C 28.914062 9.296875 28.800781 9.339844 28.6875 9.339844 C 28.574219 9.339844 28.460938 9.296875 28.375 9.210938 L 26.644531 7.480469 C 26.46875 7.304688 26.46875 7.027344 26.644531 6.851562 C 26.816406 6.679688 27.09375 6.679688 27.269531 6.851562 L 28.6875 8.273438 L 32.03125 4.929688 C 32.199219 4.757812 32.480469 4.757812 32.652344 4.929688 Z M 32.652344 4.929688 " fill-opacity="1" fill-rule="nonzero"/></g></svg>