<svg xmlns="http://www.w3.org/2000/svg" xmlns:xlink="http://www.w3.org/1999/xlink" width="50" zoomAndPan="magnify" viewBox="0 0 37.5 37.499999" height="50" preserveAspectRatio="xMidYMid meet" version="1.0"><defs><clipPath id="398bd74989"><path d="M 1.851562 1.746094 L 35.15625 1.746094 L 35.15625 35.050781 L 1.851562 35.050781 Z M 1.851562 1.746094 " clip-rule="nonzero"/></clipPath></defs><g clip-path="url(#398bd74989)"><path fill="#000000" d="M 35.007812 18.953125 L 30.554688 14.265625 L 30.554688 3.730469 C 30.554688 3.503906 30.367188 3.316406 30.136719 3.316406 L 23.695312 3.316406 C 23.46875 3.316406 23.28125 3.503906 23.28125 3.730469 L 23.28125 6.605469 L 18.804688 1.890625 C 18.726562 1.808594 18.613281 1.761719 18.5 1.761719 C 18.386719 1.761719 18.277344 1.808594 18.199219 1.890625 L 1.992188 18.953125 C 1.878906 19.074219 1.847656 19.25 1.914062 19.402344 C 1.980469 19.554688 2.128906 19.652344 2.296875 19.652344 L 5.875 19.652344 L 5.875 34.621094 C 5.875 34.847656 6.0625 35.035156 6.292969 35.035156 L 30.707031 35.035156 C 30.9375 35.035156 31.125 34.847656 31.125 34.621094 L 31.125 19.652344 L 34.703125 19.652344 C 34.871094 19.652344 35.019531 19.554688 35.085938 19.402344 C 35.152344 19.25 35.121094 19.074219 35.007812 18.953125 Z M 30.707031 18.824219 C 30.476562 18.824219 30.289062 19.011719 30.289062 19.238281 L 30.289062 34.207031 L 6.710938 34.207031 L 6.710938 19.238281 C 6.710938 19.011719 6.523438 18.824219 6.292969 18.824219 L 3.261719 18.824219 L 18.5 2.78125 L 23.394531 7.933594 C 23.511719 8.058594 23.691406 8.097656 23.851562 8.035156 C 24.007812 7.972656 24.113281 7.820312 24.113281 7.648438 L 24.113281 4.144531 L 29.722656 4.144531 L 29.722656 14.429688 C 29.722656 14.539062 29.761719 14.636719 29.835938 14.714844 L 33.738281 18.824219 Z M 22.816406 31.289062 C 22.894531 31.367188 23 31.410156 23.109375 31.410156 C 23.144531 31.410156 23.179688 31.40625 23.21875 31.398438 L 24.492188 31.058594 C 24.632812 31.019531 24.746094 30.910156 24.785156 30.765625 L 25.125 29.5 C 25.164062 29.359375 25.125 29.203125 25.019531 29.101562 L 24.085938 28.171875 C 23.980469 28.070312 23.828125 28.027344 23.683594 28.066406 L 22.410156 28.40625 C 22.265625 28.445312 22.152344 28.554688 22.113281 28.699219 L 21.773438 29.964844 C 21.734375 30.105469 21.777344 30.257812 21.882812 30.363281 Z M 22.859375 29.144531 L 23.667969 28.925781 L 24.257812 29.515625 L 24.042969 30.320312 L 23.234375 30.535156 L 22.640625 29.945312 Z M 27.535156 18.773438 C 27.421875 18.660156 27.257812 18.628906 27.113281 18.671875 C 26.707031 18.800781 26.164062 18.90625 25.890625 18.6875 C 25.703125 18.539062 25.5 18.132812 25.597656 17.042969 C 25.609375 16.921875 25.566406 16.800781 25.476562 16.710938 C 25.378906 16.617188 25.285156 16.523438 25.195312 16.429688 C 24.074219 15.3125 23.191406 14.433594 21.488281 13.808594 C 21.074219 13.660156 17.761719 12.722656 16.773438 13.390625 C 16.394531 13.648438 16.199219 14.066406 16.269531 14.476562 C 16.34375 14.894531 16.671875 15.21875 17.148438 15.347656 C 17.269531 15.378906 17.386719 15.410156 17.503906 15.441406 C 18.160156 15.609375 18.78125 15.769531 19.3125 16.082031 C 19.765625 16.351562 20.101562 16.777344 20.148438 17.144531 C 20.175781 17.367188 20.097656 17.570312 19.90625 17.757812 L 18.695312 18.960938 C 18.535156 19.125 18.535156 19.386719 18.695312 19.546875 L 18.800781 19.652344 L 17.320312 21.125 L 14.550781 18.371094 C 14.753906 17.335938 14.425781 16.257812 13.667969 15.503906 C 12.6875 14.527344 11.191406 14.289062 9.953125 14.914062 C 9.832031 14.972656 9.75 15.085938 9.726562 15.21875 C 9.707031 15.351562 9.75 15.484375 9.847656 15.578125 L 11.480469 17.191406 L 11.492188 17.84375 L 10.832031 17.832031 L 9.203125 16.21875 C 9.105469 16.125 8.972656 16.082031 8.839844 16.101562 C 8.707031 16.125 8.59375 16.207031 8.535156 16.324219 C 7.910156 17.554688 8.152344 19.039062 9.132812 20.011719 C 9.890625 20.765625 10.972656 21.089844 12.015625 20.886719 L 14.335938 23.191406 L 8.578125 28.144531 C 8.066406 28.585938 7.78125 29.175781 7.757812 29.847656 C 7.734375 30.523438 7.972656 31.128906 8.453125 31.605469 L 8.558594 31.710938 C 9.015625 32.164062 9.59375 32.402344 10.234375 32.402344 C 10.265625 32.402344 10.296875 32.402344 10.332031 32.402344 C 11.011719 32.375 11.605469 32.089844 12.046875 31.578125 L 17.003906 25.84375 L 20.300781 29.121094 C 20.101562 30.15625 20.425781 31.238281 21.183594 31.988281 C 21.789062 32.589844 22.59375 32.921875 23.453125 32.921875 C 24.308594 32.921875 25.113281 32.589844 25.71875 31.988281 C 26.324219 31.386719 26.660156 30.585938 26.660156 29.734375 C 26.660156 28.882812 26.328125 28.082031 25.71875 27.480469 C 24.964844 26.726562 23.878906 26.402344 22.835938 26.605469 L 19.078125 22.867188 L 20.558594 21.398438 L 20.636719 21.472656 C 20.71875 21.558594 20.835938 21.601562 20.953125 21.59375 C 21.074219 21.589844 21.183594 21.53125 21.257812 21.4375 C 21.925781 20.597656 22.867188 20.304688 23.386719 20.507812 C 23.949219 20.722656 23.976562 21.472656 23.941406 21.902344 L 23.945312 21.902344 C 23.933594 22.019531 23.972656 22.136719 24.0625 22.226562 L 25.648438 23.804688 C 25.730469 23.882812 25.835938 23.925781 25.941406 23.925781 C 26.050781 23.925781 26.15625 23.882812 26.238281 23.804688 L 29.121094 20.9375 C 29.285156 20.777344 29.285156 20.511719 29.121094 20.351562 Z M 12.441406 20.140625 C 12.335938 20.03125 12.179688 19.992188 12.035156 20.03125 C 11.210938 20.257812 10.328125 20.027344 9.722656 19.425781 C 9.140625 18.847656 8.914062 18.03125 9.078125 17.261719 L 10.367188 18.535156 C 10.441406 18.609375 10.542969 18.652344 10.648438 18.652344 L 11.90625 18.679688 C 12.019531 18.683594 12.128906 18.640625 12.210938 18.558594 C 12.289062 18.480469 12.335938 18.371094 12.332031 18.257812 L 12.308594 17.003906 C 12.308594 16.898438 12.265625 16.796875 12.1875 16.71875 L 10.902344 15.449219 C 11.675781 15.28125 12.5 15.507812 13.082031 16.089844 C 13.683594 16.6875 13.917969 17.570312 13.691406 18.386719 C 13.652344 18.53125 13.691406 18.683594 13.796875 18.789062 L 16.421875 21.394531 L 16.007812 21.75 L 14.542969 20.292969 C 14.382812 20.132812 14.117188 20.132812 13.953125 20.292969 C 13.792969 20.453125 13.792969 20.71875 13.953125 20.878906 L 15.378906 22.292969 L 14.96875 22.648438 Z M 11.414062 31.039062 C 11.125 31.375 10.75 31.554688 10.300781 31.570312 C 9.851562 31.589844 9.464844 31.4375 9.148438 31.121094 L 9.042969 31.019531 C 8.726562 30.703125 8.574219 30.320312 8.589844 29.875 C 8.605469 29.433594 8.785156 29.058594 9.125 28.769531 L 16.824219 22.144531 L 18.050781 23.359375 Z M 22.816406 27.457031 C 23.640625 27.230469 24.527344 27.464844 25.128906 28.0625 C 26.054688 28.984375 26.054688 30.480469 25.128906 31.402344 C 24.679688 31.847656 24.085938 32.089844 23.449219 32.089844 C 22.816406 32.089844 22.21875 31.847656 21.769531 31.402344 C 21.167969 30.800781 20.933594 29.921875 21.160156 29.101562 C 21.199219 28.957031 21.160156 28.804688 21.054688 28.699219 L 17.546875 25.214844 L 17.902344 24.804688 L 20.21875 27.105469 C 20.296875 27.1875 20.40625 27.226562 20.511719 27.226562 C 20.617188 27.226562 20.726562 27.1875 20.804688 27.105469 C 20.96875 26.945312 20.96875 26.679688 20.804688 26.519531 L 18.445312 24.171875 L 18.800781 23.761719 L 22.410156 27.347656 C 22.515625 27.457031 22.671875 27.496094 22.816406 27.457031 Z M 18.3125 22.453125 L 17.738281 21.878906 L 19.390625 20.234375 L 19.96875 20.808594 Z M 23.691406 19.734375 C 22.851562 19.40625 21.742188 19.761719 20.914062 20.578125 L 19.582031 19.253906 L 20.496094 18.34375 C 20.871094 17.972656 21.035156 17.519531 20.976562 17.039062 C 20.878906 16.292969 20.273438 15.6875 19.738281 15.371094 C 19.105469 14.996094 18.429688 14.820312 17.714844 14.636719 C 17.601562 14.609375 17.484375 14.578125 17.363281 14.546875 C 17.207031 14.503906 17.109375 14.425781 17.09375 14.335938 C 17.078125 14.246094 17.136719 14.148438 17.242188 14.074219 C 17.707031 13.761719 20.246094 14.234375 21.199219 14.585938 C 22.730469 15.144531 23.515625 15.929688 24.601562 17.015625 C 24.652344 17.0625 24.703125 17.113281 24.753906 17.164062 C 24.683594 18.25 24.878906 18.941406 25.367188 19.332031 C 25.570312 19.492188 25.808594 19.589844 26.085938 19.625 L 24.714844 20.992188 C 24.515625 20.15625 23.96875 19.839844 23.691406 19.734375 Z M 25.941406 22.921875 L 24.945312 21.933594 L 27.242188 19.652344 L 28.238281 20.644531 Z M 25.941406 22.921875 " fill-opacity="1" fill-rule="nonzero"/></g></svg>